<svg xmlns="http://www.w3.org/2000/svg" viewBox="0 0 500 500"><g id="freepik--Plants--inject-46"><g id="freepik--plants--inject-46"><path d="M431.18,287s-1.58-17.4,1.77-34.15,11.89-29.73,22.56-34.91S479,219.45,470,231s-27.92,32.22-27.38,62Z" style="fill:#407BFF"></path><g style="opacity:0.65"><path d="M431.18,287s-1.58-17.4,1.77-34.15,11.89-29.73,22.56-34.91S479,219.45,470,231s-27.92,32.22-27.38,62Z" style="fill:#fff"></path></g><path d="M436.64,286.34h-.13a.63.63,0,0,1-.62-.64c.48-36.49,12.37-54.93,26.27-64.42a.63.63,0,1,1,.71,1c-13.71,9.36-25.24,27.42-25.72,63.4A.63.63,0,0,1,436.64,286.34Z" style="fill:#fff"></path><path d="M485,253.47c-.18,2-1.78,3.59-3.32,4.92s-3.21,2.76-3.61,4.75c-.79,4,4,7.64,3,11.61a6.3,6.3,0,0,1-3.28,3.78c-1.25.7-2.6,1.16-3.91,1.74a17.23,17.23,0,0,1-2,.5,9.14,9.14,0,0,0-5.34,2.49c-2.16,2.4-1.83,6.05-2.56,9.19-.88,3.77-3.08,6-8.16,7.87l-17.64-9.67c-4.43-4.38-6.07-12-2.13-17.18,2.36-3.14,6.87-3.6,9.1-6.73,2-2.81.76-6.81,2-10.05s4.52-4.38,7.65-5,6.49.65,9.54-.51,5.86-3,9-3.86,6.59-.59,9.18,1.41A5.62,5.62,0,0,1,485,253.47Z" style="fill:#407BFF"></path><g style="opacity:0.5"><path d="M485,253.47c-.18,2-1.78,3.59-3.32,4.92s-3.21,2.76-3.61,4.75c-.79,4,4,7.64,3,11.61a6.3,6.3,0,0,1-3.28,3.78c-1.25.7-2.6,1.16-3.91,1.74a17.23,17.23,0,0,1-2,.5,9.14,9.14,0,0,0-5.34,2.49c-2.16,2.4-1.83,6.05-2.56,9.19-.88,3.77-3.08,6-8.16,7.87l-17.64-9.67c-4.43-4.38-6.07-12-2.13-17.18,2.36-3.14,6.87-3.6,9.1-6.73,2-2.81.76-6.81,2-10.05s4.52-4.38,7.65-5,6.49.65,9.54-.51,5.86-3,9-3.86,6.59-.59,9.18,1.41A5.62,5.62,0,0,1,485,253.47Z" style="fill:#fff"></path></g><path d="M452.64,269.73a.59.59,0,0,1,.13-.19C460.83,257.77,473.64,252,478,251a.45.45,0,0,1,.55.34.46.46,0,0,1-.33.55c-4.12,1-16,6.27-23.92,17.08a25.21,25.21,0,0,1,20.09,1.45.47.47,0,0,1,.15.63.45.45,0,0,1-.37.21.4.4,0,0,1-.26-.06,24.26,24.26,0,0,0-20.52-.94,38.2,38.2,0,0,0-6.5,23.62.46.46,0,0,1-.4.47h0a.45.45,0,0,1-.47-.43A39,39,0,0,1,452.64,269.73Z" style="fill:#fff"></path></g><g id="freepik--plants--inject-46"><path d="M66.85,297c2.2-12.82,3.82-24.7.18-44C64,236.81,52.37,219.15,42.78,218.31c-8.93-.79-12.6,9.76-6.17,20.67s20.83,32.13,19.8,45.62l1,15.67Z" style="fill:#407BFF"></path><g style="opacity:0.5"><path d="M66.85,297c2.2-12.82,3.82-24.7.18-44C64,236.81,52.37,219.15,42.78,218.31c-8.93-.79-12.6,9.76-6.17,20.67s20.83,32.13,19.8,45.62l1,15.67Z" style="fill:#fff"></path></g><path d="M63.45,293.1a.58.58,0,0,1-.36-.6c3.33-30.09-9.43-57.61-22.14-67.45a.59.59,0,0,1-.11-.81.57.57,0,0,1,.81-.1c12.92,10,25.95,38,22.58,68.49a.58.58,0,0,1-.63.51Z" style="fill:#fff"></path><path d="M53.86,301.6C54,297,51.16,288.4,44.73,280c-7.12-9.32-17.79-16-18.86-21.82-1.29-7,5.11-9.58,14.44-6,11.21,4.31,22,19.62,19.87,47.08Z" style="fill:#407BFF"></path><g style="opacity:0.65"><path d="M53.86,301.6C54,297,51.16,288.4,44.73,280c-7.12-9.32-17.79-16-18.86-21.82-1.29-7,5.11-9.58,14.44-6,11.21,4.31,22,19.62,19.87,47.08Z" style="fill:#fff"></path></g><path d="M57.13,297.78a.57.57,0,0,1-.36-.51c-.7-24.4-14.87-37.5-22.27-41a.57.57,0,0,1-.27-.77.57.57,0,0,1,.76-.27c8.18,3.89,22.21,17.12,22.93,42a.58.58,0,0,1-.56.59A.46.46,0,0,1,57.13,297.78Z" style="fill:#fff"></path></g></g><g id="freepik--Floor--inject-46"><ellipse id="freepik--floor--inject-46" cx="250" cy="353.97" rx="227.47" ry="131.33" style="fill:#f5f5f5"></ellipse></g><g id="freepik--Buildings--inject-46"><g id="freepik--Building--inject-46"><polygon points="300.74 262.95 340.61 285.96 340.61 92.56 300.74 69.55 300.74 262.95" style="fill:#fafafa"></polygon><polygon points="305.17 260.39 309.6 262.95 309.6 79.77 305.17 77.22 305.17 260.39" style="fill:#ebebeb"></polygon><polygon points="314.03 265.41 318.46 267.97 318.46 84.89 314.03 82.33 314.03 265.41" style="fill:#ebebeb"></polygon><polygon points="322.89 270.53 327.32 273.08 327.32 90 322.89 87.44 322.89 270.53" style="fill:#ebebeb"></polygon><polygon points="331.75 275.73 336.18 278.29 336.17 95.12 331.75 92.56 331.75 275.73" style="fill:#ebebeb"></polygon><polygon points="371.61 268.06 340.6 285.96 340.61 92.56 371.61 74.66 371.61 268.06" style="fill:#f0f0f0"></polygon><polygon points="367.18 265.5 362.75 268.06 362.75 84.89 367.18 82.33 367.18 265.5" style="fill:#e0e0e0"></polygon><polygon points="358.32 270.62 353.89 273.18 353.89 90 358.32 87.44 358.32 270.62" style="fill:#e0e0e0"></polygon><polygon points="349.46 275.73 345.04 278.29 345.04 95.12 349.46 92.56 349.46 275.73" style="fill:#e0e0e0"></polygon><polygon points="371.61 74.66 331.75 51.65 300.74 69.55 340.61 92.56 371.61 74.66" style="fill:#ebebeb"></polygon><polygon points="340.6 72.1 314.03 56.76 331.75 46.53 358.32 61.88 340.6 72.1" style="fill:#ebebeb"></polygon><polygon points="340.6 84.89 340.6 72.1 314.03 56.76 314.03 69.55 340.6 84.89" style="fill:#fafafa"></polygon><polygon points="358.32 74.66 358.32 61.88 340.6 72.1 340.6 84.89 358.32 74.66" style="fill:#f0f0f0"></polygon><path d="M339,61a.78.78,0,0,0,.46.64,2.46,2.46,0,0,0,2.21,0,.78.78,0,0,0,.46-.64V36H339Z" style="fill:#fafafa"></path><path d="M339.21,36.43c.67.72,2.5.65,2.94-.21a.47.47,0,0,0,0-.4c-.44-.86-2.27-.93-2.94-.22A.59.59,0,0,0,339.21,36.43Z" style="fill:#ebebeb"></path></g><g id="freepik--building--inject-46"><polygon points="210.9 245.86 250.88 268.94 250.88 119.92 210.9 96.83 210.9 245.86" style="fill:#fafafa"></polygon><polygon points="250.88 268.94 290.87 245.86 290.87 96.83 250.88 119.92 250.88 268.94" style="fill:#f0f0f0"></polygon><polygon points="290.87 96.83 250.88 73.75 210.9 96.83 250.88 119.92 290.87 96.83" style="fill:#ebebeb"></polygon><polygon points="250.88 115.3 250.88 78.36 282.87 59.89 282.87 96.72 250.88 115.3" style="fill:#f0f0f0"></polygon><polygon points="218.89 96.83 218.89 59.89 250.88 78.36 250.88 115.3 218.89 96.83" style="fill:#fafafa"></polygon><polygon points="282.87 59.89 250.88 41.43 218.89 59.89 250.88 78.36 282.87 59.89" style="fill:#ebebeb"></polygon><polygon points="250.88 73.75 226.89 59.89 226.89 32.19 250.88 46.04 250.88 73.75" style="fill:#fafafa"></polygon><polygon points="250.88 73.75 274.87 59.89 274.87 32.19 250.88 46.04 250.88 73.75" style="fill:#f0f0f0"></polygon><polygon points="274.87 32.19 250.88 18.34 226.89 32.19 250.88 46.04 274.87 32.19" style="fill:#ebebeb"></polygon><polygon points="246.88 260.87 242.88 258.56 242.88 119.92 246.88 122.23 246.88 260.87" style="fill:#ebebeb"></polygon><polygon points="239.89 256.82 235.89 254.52 235.89 115.88 239.88 118.19 239.89 256.82" style="fill:#ebebeb"></polygon><polygon points="232.89 252.78 228.89 250.48 228.89 111.84 232.89 114.15 232.89 252.78" style="fill:#ebebeb"></polygon><polygon points="225.89 248.75 221.89 246.44 221.89 107.8 225.89 110.11 225.89 248.75" style="fill:#ebebeb"></polygon><polygon points="218.89 244.71 214.9 242.4 214.9 103.76 218.89 106.07 218.89 244.71" style="fill:#ebebeb"></polygon><polygon points="254.88 260.87 258.88 258.56 258.88 119.92 254.88 122.23 254.88 260.87" style="fill:#e0e0e0"></polygon><polygon points="261.88 256.82 265.88 254.52 265.88 115.88 261.88 118.19 261.88 256.82" style="fill:#e0e0e0"></polygon><polygon points="268.88 252.78 272.88 250.48 272.88 111.84 268.88 114.15 268.88 252.78" style="fill:#e0e0e0"></polygon><polygon points="275.87 248.75 279.87 246.44 279.87 107.8 275.87 110.11 275.87 248.75" style="fill:#e0e0e0"></polygon><polygon points="282.87 244.71 286.87 242.4 286.87 103.76 282.87 106.07 282.87 244.71" style="fill:#e0e0e0"></polygon><polygon points="254.38 108.66 258.38 106.35 258.38 78.65 254.38 80.96 254.38 108.66" style="fill:#e0e0e0"></polygon><polygon points="261.38 104.62 265.38 102.31 265.38 74.61 261.38 76.92 261.38 104.62" style="fill:#e0e0e0"></polygon><polygon points="268.37 100.58 272.37 98.27 272.37 70.57 268.37 72.88 268.37 100.58" style="fill:#e0e0e0"></polygon><polygon points="275.37 96.54 279.37 94.23 279.37 66.53 275.37 68.84 275.37 96.54" style="fill:#e0e0e0"></polygon><polygon points="247.38 108.66 243.38 106.35 243.38 78.65 247.38 80.96 247.38 108.66" style="fill:#ebebeb"></polygon><polygon points="240.38 104.62 236.39 102.31 236.38 74.61 240.38 76.92 240.38 104.62" style="fill:#ebebeb"></polygon><polygon points="233.39 100.58 229.39 98.27 229.39 70.57 233.39 72.88 233.39 100.58" style="fill:#ebebeb"></polygon><polygon points="226.39 96.54 222.39 94.23 222.39 66.53 226.39 68.84 226.39 96.54" style="fill:#ebebeb"></polygon><polygon points="253.88 67.4 257.88 65.09 257.88 46.62 253.88 48.93 253.88 67.4" style="fill:#e0e0e0"></polygon><polygon points="260.88 63.36 264.88 61.05 264.88 42.58 260.88 44.89 260.88 63.36" style="fill:#e0e0e0"></polygon><polygon points="267.88 59.32 271.87 57.01 271.87 38.54 267.88 40.85 267.88 59.32" style="fill:#e0e0e0"></polygon><polygon points="247.88 67.4 243.88 65.09 243.88 46.62 247.88 48.93 247.88 67.4" style="fill:#ebebeb"></polygon><polygon points="240.88 63.36 236.89 61.05 236.88 42.58 240.88 44.89 240.88 63.36" style="fill:#ebebeb"></polygon><polygon points="233.89 59.32 229.89 57.01 229.89 38.54 233.89 40.85 233.89 59.32" style="fill:#ebebeb"></polygon></g><g id="freepik--building--inject-46"><polygon points="187.89 268.96 199.13 262.47 199.44 68.16 188.2 74.65 187.89 268.96" style="fill:#f5f5f5"></polygon><polygon points="199.44 68.16 180.71 57.35 169.47 63.84 188.2 74.65 199.44 68.16" style="fill:#ebebeb"></polygon><polygon points="150.43 290.59 161.67 284.1 161.97 89.79 150.74 96.28 150.43 290.59" style="fill:#fafafa"></polygon><polygon points="165.41 286.27 191.64 271.13 191.94 59.51 165.72 74.65 165.41 286.27" style="fill:#fafafa"></polygon><polygon points="150.43 290.59 131.7 279.78 132 85.47 150.74 96.28 150.43 290.59" style="fill:#f0f0f0"></polygon><polygon points="146.68 284.1 146.99 98.44 143.24 96.28 142.94 281.94 146.68 284.1" style="fill:#e0e0e0"></polygon><polygon points="154.18 284.1 154.48 98.44 158.23 96.28 157.92 281.94 154.18 284.1" style="fill:#ebebeb"></polygon><polygon points="193.13 261.48 193.44 75.82 197.19 73.66 196.88 259.32 193.13 261.48" style="fill:#fafafa"></polygon><polygon points="193.13 261.48 193.44 75.82 197.19 73.66 196.88 259.32 193.13 261.48" style="fill:#e6e6e6"></polygon><polygon points="139.19 279.78 139.5 94.12 135.75 91.95 135.44 277.61 139.19 279.78" style="fill:#e0e0e0"></polygon><polygon points="161.97 89.79 143.24 78.98 132 85.47 150.74 96.28 161.97 89.79" style="fill:#ebebeb"></polygon><polygon points="161.67 284.1 165.41 286.27 165.72 74.65 143.24 61.67 143.24 78.98 161.97 89.79 161.67 284.1" style="fill:#f0f0f0"></polygon><polygon points="191.94 59.51 169.47 46.53 143.24 61.67 165.72 74.65 191.94 59.51" style="fill:#ebebeb"></polygon><polygon points="169.16 279.83 169.47 78.32 173.21 76.15 172.91 277.67 169.16 279.83" style="fill:#ebebeb"></polygon><polygon points="176.65 275.51 176.96 73.99 180.71 71.83 180.4 273.35 176.65 275.51" style="fill:#ebebeb"></polygon><polygon points="184.15 271.18 184.45 69.66 188.2 67.5 187.89 269.02 184.15 271.18" style="fill:#ebebeb"></polygon></g></g><g id="freepik--Clouds--inject-46"><g id="freepik--clouds--inject-46"><path d="M62.36,100.59l-4.89,2.83c0-.22,0-.44,0-.65v-1.42c0-2.52-1.77-3.54-4-2.28a7.74,7.74,0,0,0-2.35,2.26c-.36-3.17-2.85-4.35-5.87-2.6A13,13,0,0,0,39.42,109v2.12a5.61,5.61,0,0,0,.5,2.46l-4.07,2.34a4.85,4.85,0,0,0-2.19,3.8c0,1.4,1,2,2.19,1.27l26.51-15.3a4.85,4.85,0,0,0,2.19-3.8C64.55,100.46,63.57,99.89,62.36,100.59Z" style="fill:#f5f5f5"></path><path d="M96.75,52l-2.69,1V47.1c0-4.71-3.76-5.84-7.84-3.49h0a16.35,16.35,0,0,0-7.39,12.8v.86a4,4,0,0,0-3.43.53h0A11.76,11.76,0,0,0,70.08,67v.39l-3.76,2.17a7.75,7.75,0,0,0-3.5,6.07c0,2.23,1.57,3.13,3.5,2L96.75,60.09a7.73,7.73,0,0,0,3.5-6.07C100.25,51.79,98.69,50.89,96.75,52Z" style="fill:#f5f5f5"></path></g><g id="freepik--clouds--inject-46"><path d="M436.58,100.59l4.89,2.83c0-.22,0-.44,0-.65v-1.42c0-2.52,1.77-3.54,3.95-2.28a7.66,7.66,0,0,1,2.36,2.26c.36-3.17,2.85-4.35,5.87-2.6A13.07,13.07,0,0,1,459.52,109v2.12a5.61,5.61,0,0,1-.5,2.46l4.06,2.34a4.83,4.83,0,0,1,2.2,3.8c0,1.4-1,2-2.2,1.27l-26.5-15.3a4.85,4.85,0,0,1-2.19-3.8C434.39,100.46,435.37,99.89,436.58,100.59Z" style="fill:#f5f5f5"></path><path d="M402.19,52l2.69,1V47.1c0-4.71,3.76-5.84,7.84-3.49h0a16.35,16.35,0,0,1,7.39,12.8v.86a4,4,0,0,1,3.43.53h0A11.76,11.76,0,0,1,428.86,67v.39l3.76,2.17a7.75,7.75,0,0,1,3.5,6.07c0,2.23-1.57,3.13-3.5,2L402.19,60.09A7.74,7.74,0,0,1,398.68,54C398.68,51.79,400.25,50.89,402.19,52Z" style="fill:#f5f5f5"></path></g></g><g id="freepik--Shadows--inject-46"><ellipse id="freepik--Shadow--inject-46" cx="333.95" cy="422" rx="61.48" ry="35.49" style="fill:#e0e0e0"></ellipse><ellipse id="freepik--shadow--inject-46" cx="155.99" cy="374.84" rx="61.48" ry="35.49" style="fill:#e0e0e0"></ellipse></g><g id="freepik--character-2--inject-46"><g id="freepik--Character--inject-46"><g id="freepik--character--inject-46"><g id="freepik--Bottom--inject-46"><path d="M290.43,435.76a7.06,7.06,0,0,0-.09,3.8c.36.77,2.64,3.28,7.29,4.19s11,0,13.79-.16,11.39.88,14.13,1.26c4.32.58,7.64-.37,9.25-1.93a2.83,2.83,0,0,0,.64-2.27,11.17,11.17,0,0,0-.45-3.07Z" style="fill:#263238"></path><path d="M334.27,433.06c.09.35.16.71.23,1.08a18.2,18.2,0,0,1,.4,5.6,5.07,5.07,0,0,1-3.31,2.5c-3.25,1-5.73.87-9.32.19a65.35,65.35,0,0,0-10.95-.67c-2.83.19-6.73.73-9.56.47a22.75,22.75,0,0,1-7-1.43c-1.89-.81-3.82-1.85-4.29-3.8-.56-4.1,1.17-5.91,3.11-7.05s4.7-1.05,7.65-1.25c2.68-.18,4.62-.18,7-.36a35,35,0,0,0,6.11-.85c1.79-.57,3.63-2.85,4.39-2.93,0,0,11.89-.1,13,0,1.31.11,1.72,4.17,1.88,5.06.13.69.15,1.43.33,2.1C334.05,432.16,334.16,432.61,334.27,433.06Z" style="fill:#37474f"></path><path d="M297.63,441.68c-.37-2.95-.86-9.35,4.57-13l.69,0a13.49,13.49,0,0,0-7.52,0c-4.35,1.16-6.27,4.68-5.19,8.39C290.18,437,291.15,440.59,297.63,441.68Z" style="fill:#fafafa"></path><path d="M313.49,427.7c-1.76,1.56-2.36,5.1-2.36,5.1-.23,1.33-2.64,1.53-2.41.25a13.93,13.93,0,0,1,2.08-4.94A4.1,4.1,0,0,1,313.49,427.7Z" style="fill:#fafafa"></path><path d="M308.57,428.31a8.49,8.49,0,0,0-2.47,4.83c-.25,1.27-2.25,1.25-2.11,0,0,0,.23-3.14,2.11-4.61A2.68,2.68,0,0,1,308.57,428.31Z" style="fill:#fafafa"></path><path d="M345.31,399.31c0,2.31-.17,4.4.95,6.86,1.62,3.54,4.59,5,6.37,6.3a48.39,48.39,0,0,1,5.29,5.25c1.78,1.87,2.3,3,4.94,5a9,9,0,0,0,8.85.58c2.07-1.06,2.76-1.85,2.38-5.11s-10.9-3.61-10.9-3.61Z" style="fill:#263238"></path><path d="M372,408.57c.91.25,1.26,1.85,1.63,5.05.28,2.42,1.62,5.89-1.79,7.68-2.74,1.45-7.34,1-9.42-1.18-2.6-2.68-4.41-5.08-8.08-8.31-3.18-2.8-6.34-3.6-8.1-9.54-1.13-3.82-.59-5.48,2.08-6.8,3.66-1.81,10,2.76,13,3.33C363.93,399.29,371.1,408.31,372,408.57Z" style="fill:#37474f"></path><path d="M361.33,398.8l-.52-.13a9.73,9.73,0,0,0-7.8,5.71c-.43,1.09,1.19,1.8,2.05.91,1.82-4.15,6.09-5.36,7.8-5.68A4.23,4.23,0,0,0,361.33,398.8Z" style="fill:#fafafa"></path><path d="M363.91,400.44a9.66,9.66,0,0,0-7.23,5.63c-.42,1.09,1.19,1.8,2.05.91a10,10,0,0,1,6.46-5.35C364.75,401.21,364.32,400.8,363.91,400.44Z" style="fill:#fafafa"></path><path d="M348.32,406.61s-.23-7.21,9.92-9l.6.28a8.71,8.71,0,0,0-5.3-3.32c-3.46-.63-6.08.41-7.7,2.73S346.45,405.34,348.32,406.61Z" style="fill:#fafafa"></path><path d="M374.6,368.89c.11-12.23-2.76-17-2.76-17s2.33-49.19,1.63-58.42c-1-12.63-1.86-14.87-2.09-19.69,0,0-52.63-5.86-53.37,11.62-1.36,31.83-2.42,47.73-2.61,72.35-.06,7.69-.13,21,.35,36,.4,12.38.66,32.28.66,32.28,7.92,7.29,17,2.47,17,2.47s6-38.29,6.53-47.14a86.84,86.84,0,0,0-.54-16.88l6.72-33,12.73,79.49c4,5.57,14.14,3.43,15.3.88C374.14,411.78,374.5,379.73,374.6,368.89Z" style="fill:#455a64"></path><path d="M364.39,302.31s-1,7-11,9.95l-4.63,19.18s.73,21.64.74,21.41l-3.43-21.44,3.57-21.15S359.53,308.25,364.39,302.31Z" style="fill:#37474f"></path></g><g id="freepik--Top--inject-46"><polygon points="339.26 207.18 340.03 222.02 356.29 221.16 355.79 203.65 339.26 207.18" style="fill:#ffbda7"></polygon><path d="M363.05,211.35c5.3.24,11.23.77,14.39,9.1,1,2.62,1.86,5.45,1.71,17.59-.09,7.3-.46,11.37-1.65,23.22-.68,6.75-3,9.3-8.29,7.69a67.27,67.27,0,0,1-12.93-5.49Z" style="fill:#ffbda7"></path><path d="M362.05,211.29c5.58-.61,9.81,1.05,12.58,3.55s3.89,6.69,4.54,10.43,0,18.34,0,18.34-3.49,6.44-16.48,1.43Z" style="fill:#407BFF"></path><path d="M362.05,211.29c5.58-.61,9.81,1.05,12.58,3.55s3.89,6.69,4.54,10.43,0,18.34,0,18.34-3.49,6.44-16.48,1.43Z" style="opacity:0.30000000000000004"></path><path d="M375.42,220.6c-1.76-4.19-7.6-10.06-15-9.23-2,.22-4.42.57-4.42.57-.66,2.68-9.33,4.48-16.37,2.82-2.12.56-10.47,2.56-12.23,3.15-5.06,1.68-7.38,6-8.44,24.31s-1.84,30.54-1.42,48.75c22.46,6.15,49.7,2.18,55.62-4.27a114,114,0,0,1-1.13-17.06c0-8.2.28-12.42,2.55-23C377.75,232,377.48,225.52,375.42,220.6Z" style="fill:#407BFF"></path><path d="M328.73,217.63c-8.13,2.13-11.24,3.9-14.12,11.45-2.22,5.81-12.13,23.54-15.19,34.42-.91,3.25-1.27,6.9,2.49,9.67,3.95,2.9,10.32,0,15.39-7.1l12.75-22a27.34,27.34,0,0,0,3.76-15.78C333.49,224.25,332.2,220.08,328.73,217.63Z" style="fill:#ffbda7"></path><path d="M330.51,217c-7.21,2.39-11.22.71-16.92,13.49l-5.47,11.21a14.59,14.59,0,0,0,4,13.89c6.31,6.49,9.71,4.1,9.71,4.1s10.78-16.43,12.08-21.28S336.57,224.55,330.51,217Z" style="fill:#407BFF"></path><path d="M330.51,217c-7.21,2.39-11.22.71-16.92,13.49l-5.47,11.21a14.59,14.59,0,0,0,4,13.89c6.31,6.49,9.71,4.1,9.71,4.1s10.78-16.43,12.08-21.28S336.57,224.55,330.51,217Z" style="opacity:0.30000000000000004"></path><path d="M328.33,187.06s-3.88,5.88-3.44,6.46,3.3,1.1,3.3,1.1Z" style="fill:#f0997a"></path><path d="M339.09,170.79c-7.85,1.66-11,4-11.46,17.35-.47,13,1.17,17.32,2.88,19.07,1.15,1.19,7.57,1.4,10.8.51,4.05-1.12,13.21-4.36,17.5-10.91,5-7.71,6.36-18.15,1-22.43C352.18,168.35,342.28,170.12,339.09,170.79Z" style="fill:#ffbda7"></path><path d="M330.51,207.21c.95,1,5.43,1.29,8.8.88l-.05-1.94A19.1,19.1,0,0,1,330.51,207.21Z" style="fill:#f0997a"></path><path d="M326.59,175.82a9.2,9.2,0,0,0,6.75,1.63,5.05,5.05,0,0,0,.8,3,5.91,5.91,0,0,0,3.4,2.46,12.24,12.24,0,0,0-1.34,5.43,3,3,0,0,0,.37,1.71,1.1,1.1,0,0,0,2,0,14.66,14.66,0,0,1,1.66-2.84,5.32,5.32,0,0,1,3.35-1.88c4.93-.54,5.54,5.91,3.57,8.58-3.22,4.37-6,1.41-6,1.41s-.73,7,4.22,12a19.43,19.43,0,0,0,10.48-.39c2.86-5.53,8.41-9,10.74-14.17,4.93-11,1.53-18-2.28-20.9-.76-5.06-4.74-7.33-9.28-8.37-6.79-1.56-13.14,2.47-19.85,1-1.09-.25-2.22-.51-3.28-.86a1.79,1.79,0,0,0-1.32-.09,1.49,1.49,0,0,0-.64,1.5c.09,1.29,1.39,2.73,2.06,3.43a14.68,14.68,0,0,1-4.39-.26,4.3,4.3,0,0,0-1.52.05,2.76,2.76,0,0,0-1.74,2.77A6.57,6.57,0,0,0,326.59,175.82Z" style="fill:#263238"></path><path d="M364.46,173.44l4.69-2.76a2.72,2.72,0,1,0-4.69,2.76Z" style="fill:#263238"></path></g></g><g id="freepik--Videocamera--inject-46"><path d="M263.7,163.18c-1.79-1.05-4.27-.91-7,.67-5.49,3.15-10,10.85-10,17.18,0,3.1,1.06,5.3,2.79,6.36.58.36,4.49,2.47,5,2.8,1.79,1.05,4.27.91,7-.67,5.49-3.16,10-10.85,10-17.18,0-3.13-1.08-5.33-2.84-6.38C268.13,165.61,264.25,163.5,263.7,163.18Z" style="fill:#ffbda7"></path><path d="M247.87,185.73c.06.09.11.18.17.26l-.19-.27h0Z" style="fill:#ffbda7"></path><path d="M251.65,183.77c0,6.33,4.43,8.91,9.92,5.75s10-10.85,10-17.18-4.43-8.91-9.92-5.76S251.66,177.43,251.65,183.77Z" style="fill:#ffbda7"></path><path d="M254.31,190.05l-.1-.05-.08-.05-.16-.09-.14-.07-.29-.16-.68-.38-2.37-1.3c-.21-.13-.4-.23-.55-.31l-.43-.25a5.64,5.64,0,0,1-.63-.46l-.27-.26a3.73,3.73,0,0,1-.41-.47L248,186c-.06-.08-.11-.17-.17-.26h0a8.86,8.86,0,0,1-1.13-4.69,18.21,18.21,0,0,1,1.36-6.55c.11-.29.23-.56.35-.83s.18-.41.28-.61.19-.41.29-.61a0,0,0,0,1,0,0l4.89,2.83a19.57,19.57,0,0,0-2.25,8.52,8.92,8.92,0,0,0,1.1,4.64A5.23,5.23,0,0,0,254.31,190.05Z" style="fill:#ffbda7"></path><path d="M270.75,170h0l-.25-.14c-1.48-.78-3.5-.63-5.71.64-4.58,2.64-8.3,9.05-8.31,14.34a8.54,8.54,0,0,0,.35,2.59,5.09,5.09,0,0,0,1.49,2.37,3.68,3.68,0,0,0,.51.37h0l0,0,0,0,.14.08,5.56,3.22a4.34,4.34,0,0,1-.64-.49,6.36,6.36,0,0,1-1.71-4.85c0-5.28,3.73-11.69,8.31-14.33a6.35,6.35,0,0,1,5.05-.91,3.36,3.36,0,0,1,.68.28Z" style="fill:#ffbda7"></path><path d="M270.75,170h0l-.25-.14c-1.48-.78-3.5-.63-5.71.64-4.58,2.64-8.3,9.05-8.31,14.34a8.54,8.54,0,0,0,.35,2.59,5.09,5.09,0,0,0,1.49,2.37,3.68,3.68,0,0,0,.51.37h0l0,0,0,0,.14.08,5.56,3.22a4.34,4.34,0,0,1-.64-.49,6.36,6.36,0,0,1-1.71-4.85c0-5.28,3.73-11.69,8.31-14.33a6.35,6.35,0,0,1,5.05-.91,3.36,3.36,0,0,1,.68.28Z" style="fill:#ffbda7"></path><path d="M258.31,189.83a3.17,3.17,0,0,0,.51.37l-2.94-1.7h0l0,0c-1.48-.88-2.39-2.73-2.38-5.35,0-5.27,3.73-11.69,8.31-14.32a7.47,7.47,0,0,1,3.7-1.13,4.42,4.42,0,0,1,2.16.56l2.86,1.66c-1.48-.78-3.5-.63-5.71.64-4.58,2.64-8.3,9.05-8.31,14.34a8.54,8.54,0,0,0,.35,2.59A4.89,4.89,0,0,0,258.31,189.83Z" style="fill:#ffbda7"></path><path d="M287.84,183.91c0,5.28-3.73,11.69-8.31,14.32a7.47,7.47,0,0,1-3.7,1.13,4.23,4.23,0,0,1-2.14-.55h0l-9-5.2-.12-.07a4.34,4.34,0,0,1-.64-.49,6.36,6.36,0,0,1-1.71-4.85c0-5.28,3.73-11.69,8.31-14.33a6.35,6.35,0,0,1,5.05-.91,3.36,3.36,0,0,1,.68.28l0,0,.24.13,8.87,5.14h0C286.92,179.4,287.85,181.26,287.84,183.91Z" style="fill:#ffbda7"></path><path d="M261.72,191.2a.27.27,0,0,1-.12,0l-3.14-1.81a.25.25,0,1,1,.25-.43l3.14,1.8a.25.25,0,0,1,.09.34A.26.26,0,0,1,261.72,191.2Z" style="fill:#ffbda7"></path><path d="M261.1,189a.28.28,0,0,1-.12,0l-3.14-1.8a.25.25,0,1,1,.25-.43l3.14,1.8a.25.25,0,0,1,.09.34A.26.26,0,0,1,261.1,189Z" style="fill:#ffbda7"></path><path d="M260.88,186.86a.31.31,0,0,1-.13,0L257.62,185a.25.25,0,1,1,.25-.43l3.13,1.8a.26.26,0,0,1,.09.35A.24.24,0,0,1,260.88,186.86Z" style="fill:#ffbda7"></path><path d="M261,184.94a.31.31,0,0,1-.13,0l-3.13-1.81a.25.25,0,1,1,.25-.43l3.13,1.8a.26.26,0,0,1,.09.35A.24.24,0,0,1,261,184.94Z" style="fill:#ffbda7"></path><path d="M261.53,183.1a.31.31,0,0,1-.13,0l-3.13-1.81a.25.25,0,0,1,.25-.43l3.13,1.8a.26.26,0,0,1,.1.35A.25.25,0,0,1,261.53,183.1Z" style="fill:#ffbda7"></path><path d="M262.27,181.28a.28.28,0,0,1-.13,0L259,179.44a.25.25,0,1,1,.25-.43l3.14,1.81a.24.24,0,0,1,.09.34A.24.24,0,0,1,262.27,181.28Z" style="fill:#ffbda7"></path><path d="M263.19,179.52a.28.28,0,0,1-.13,0l-3.14-1.81a.25.25,0,0,1,.25-.43l3.14,1.8a.26.26,0,0,1,.09.35A.24.24,0,0,1,263.19,179.52Z" style="fill:#ffbda7"></path><path d="M264.27,177.85a.28.28,0,0,1-.13,0L261,176a.25.25,0,0,1-.09-.34.26.26,0,0,1,.34-.1l3.14,1.81a.25.25,0,0,1,.09.34A.24.24,0,0,1,264.27,177.85Z" style="fill:#ffbda7"></path><path d="M265.49,176.32a.28.28,0,0,1-.13,0l-3.14-1.81a.25.25,0,1,1,.25-.43l3.14,1.8a.26.26,0,0,1,.09.35A.24.24,0,0,1,265.49,176.32Z" style="fill:#ffbda7"></path><path d="M266.83,175a.2.2,0,0,1-.13,0l-3.14-1.8a.25.25,0,1,1,.25-.43l3.14,1.8a.25.25,0,0,1-.12.47Z" style="fill:#ffbda7"></path><path d="M268.26,173.8l-.12,0L265,172a.25.25,0,1,1,.25-.43l3.14,1.8a.25.25,0,0,1,.09.34A.26.26,0,0,1,268.26,173.8Z" style="fill:#ffbda7"></path><path d="M270,172.79a.27.27,0,0,1-.12,0L266.71,171a.25.25,0,1,1,.25-.43l3.14,1.8a.25.25,0,0,1,.09.34A.26.26,0,0,1,270,172.79Z" style="fill:#ffbda7"></path><path d="M272,172.12a.22.22,0,0,1-.13,0l-3.13-1.8a.25.25,0,1,1,.25-.43l3.13,1.8a.25.25,0,0,1,.1.34A.26.26,0,0,1,272,172.12Z" style="fill:#ffbda7"></path><path d="M273.35,188.58a16.12,16.12,0,0,0-1.2,5.78,7.75,7.75,0,0,0,1,4.14l-8.44-4.89-.12-.07h0L259,190.32l-.13-.08,0,0,0,0h0l-2.94-1.7h0l0,0c-1.47-.88-2.38-2.73-2.37-5.35a15,15,0,0,1,1.13-5.44Z" style="fill:#ffbda7"></path><path d="M299.7,171.13V196.2a2.36,2.36,0,0,1-1.06,1.84l-23.09,13.32-.23.11a2.43,2.43,0,0,1-1.64,0,.74.74,0,0,1-.24-.11l-.65-.37-1.41-.82v-.32l-1.7-1-.28.16h0l-1.41-.82-.28-.16h0a2.39,2.39,0,0,1-.67-.59,2.58,2.58,0,0,1-.34-.66s0-.09-.05-.14l0-.14,0-.13v0h0a.91.91,0,0,1,0-.17v-.11l.08-25.48h0v0h0a2.34,2.34,0,0,1,.25-.56h0a1.86,1.86,0,0,1,.59-.65l.06-.05.06,0,.49-.29,22.75-13.14h0a1.81,1.81,0,0,1,1.8,0l6,3.46A2.34,2.34,0,0,1,299.7,171.13Z" style="fill:#ffbda7"></path><path d="M275.55,211.36l-.23.11a2,2,0,0,1-.83.18,1.88,1.88,0,0,1-.81-.18.74.74,0,0,1-.24-.11l-.65-.37-1.41-.82v-.32l-1.7-1-.28.16h0l-1.41-.82-.28-.16h0a2.39,2.39,0,0,1-.67-.59,2.58,2.58,0,0,1-.34-.66s0-.09-.05-.14l0-.14,0-.13v0h0a2.53,2.53,0,0,1,0-.28v-25a3.53,3.53,0,0,1,.08-.54,2.34,2.34,0,0,1,.25-.56h0a1.09,1.09,0,0,0,.26.21l7.64,4.42a2.19,2.19,0,0,0-.3,1v25.07Z" style="fill:#ffbda7"></path><path d="M298.64,170.52l-23.08,13.32a2.33,2.33,0,0,0-1.06,1.84v25.07c0,.68.47.95,1.06.61L298.64,198a2.36,2.36,0,0,0,1.06-1.84V171.13C299.7,170.45,299.22,170.18,298.64,170.52Z" style="fill:#ffbda7"></path><path d="M272.79,193.87V211l-1.41-.82v-.33l-1.7-1-.28.16h0l-1.41-.82V191.09c0-.68.48-1,1.06-.62l2.7,1.56A2.35,2.35,0,0,1,272.79,193.87Z" style="fill:#ffbda7"></path><path d="M271.38,203.8v6l-1.7-1-.28.16h0v-6.38c0-.22.13-.33.3-.29a.31.31,0,0,1,.12,0l1.15.66A.94.94,0,0,1,271.38,203.8Z" style="fill:#ffbda7"></path><path d="M271.38,203.8v6l-1.7-1v-6.38a.53.53,0,0,1,0-.13.31.31,0,0,1,.12,0l1.15.66A.94.94,0,0,1,271.38,203.8Z" style="fill:#ffbda7"></path><path d="M270.26,203.61l-.22.12v0a.25.25,0,0,0,0,.16.73.73,0,0,0,.34.58.24.24,0,0,0,.15,0l0,0,.21-.13h0c.07,0,.1-.11.1-.22a.76.76,0,0,0-.33-.58A.24.24,0,0,0,270.26,203.61Z" style="fill:#ffbda7"></path><path d="M270.26,203.61l-.22.12v0a.25.25,0,0,0,0,.16.73.73,0,0,0,.34.58.24.24,0,0,0,.15,0l0,0,.21-.13h0c.07,0,.1-.11.1-.22a.76.76,0,0,0-.33-.58A.24.24,0,0,0,270.26,203.61Z" style="fill:#ffbda7"></path><path d="M270.61,204.34c0,.22-.15.3-.33.2a.75.75,0,0,1-.34-.59c0-.21.15-.3.34-.19A.74.74,0,0,1,270.61,204.34Z" style="fill:#ffbda7"></path><path d="M270.1,193.68l-.48.28,0,0a.61.61,0,0,0-.09.35,1.64,1.64,0,0,0,.74,1.28.72.72,0,0,0,.35.1l0,0,.48-.28h0a.52.52,0,0,0,.22-.48,1.64,1.64,0,0,0-.74-1.28A.52.52,0,0,0,270.1,193.68Z" style="fill:#ffbda7"></path><path d="M270.1,193.68l-.48.28,0,0a.61.61,0,0,0-.09.35,1.64,1.64,0,0,0,.74,1.28.72.72,0,0,0,.35.1l0,0,.48-.28h0a.52.52,0,0,0,.22-.48,1.64,1.64,0,0,0-.74-1.28A.52.52,0,0,0,270.1,193.68Z" style="fill:#ffbda7"></path><path d="M270.89,195.29c0,.47-.34.66-.74.43a1.64,1.64,0,0,1-.74-1.28c0-.48.33-.67.74-.43A1.65,1.65,0,0,1,270.89,195.29Z" style="fill:#ffbda7"></path><path d="M270.26,205.92l-.22.13v0a.25.25,0,0,0,0,.16.73.73,0,0,0,.34.58.24.24,0,0,0,.15.05l0,0,.21-.13h0c.07,0,.1-.11.1-.22a.76.76,0,0,0-.33-.58A.24.24,0,0,0,270.26,205.92Z" style="fill:#ffbda7"></path><path d="M270.26,205.92l-.22.13v0a.25.25,0,0,0,0,.16.73.73,0,0,0,.34.58.24.24,0,0,0,.15.05l0,0,.21-.13h0c.07,0,.1-.11.1-.22a.76.76,0,0,0-.33-.58A.24.24,0,0,0,270.26,205.92Z" style="fill:#ffbda7"></path><path d="M270.61,206.66c0,.21-.15.3-.33.19a.73.73,0,0,1-.34-.58c0-.22.15-.3.34-.2A.76.76,0,0,1,270.61,206.66Z" style="fill:#ffbda7"></path><path d="M270.21,197.1l-.3.17,0,0a.33.33,0,0,0-.05.21,1,1,0,0,0,.45.8.49.49,0,0,0,.22.06v0l.3-.17h0a.32.32,0,0,0,.13-.29,1,1,0,0,0-.45-.8A.33.33,0,0,0,270.21,197.1Z" style="fill:#ffbda7"></path><path d="M270.7,198.1c0,.29-.21.41-.46.26a1,1,0,0,1-.46-.79c0-.29.2-.41.46-.27A1,1,0,0,1,270.7,198.1Z" style="fill:#ffbda7"></path><path d="M270.21,199.61l-.3.17,0,0a.38.38,0,0,0-.05.22,1,1,0,0,0,.45.79.4.4,0,0,0,.22.07v0l.3-.17h0a.33.33,0,0,0,.13-.3,1,1,0,0,0-.45-.79A.33.33,0,0,0,270.21,199.61Z" style="fill:#ffbda7"></path><path d="M270.7,200.6c0,.3-.21.41-.46.27a1,1,0,0,1-.46-.79c0-.3.2-.42.46-.27A1,1,0,0,1,270.7,200.6Z" style="fill:#ffbda7"></path><path d="M277.69,178.74a.65.65,0,0,0-.3-.49l-2.81-1.62a.7.7,0,0,0-.6,0l-3.88,2.23a.62.62,0,0,0-.29.5.73.73,0,0,0,.31.51l2.8,1.6a.64.64,0,0,0,.6,0l3.87-2.23A.65.65,0,0,0,277.69,178.74Z" style="fill:#ffbda7"></path><path d="M277.69,178.74a.65.65,0,0,0-.3-.49l-2.81-1.62a.7.7,0,0,0-.6,0l-3.88,2.23a.62.62,0,0,0-.29.5.73.73,0,0,0,.31.51l2.8,1.6a.64.64,0,0,0,.6,0l3.87-2.23A.65.65,0,0,0,277.69,178.74Z" style="fill:#ffbda7"></path><path d="M277.39,178.59l-3.88,2.23a.64.64,0,0,1-.6,0l-2.81-1.62a.18.18,0,0,1,0-.34l3.88-2.23a.7.7,0,0,1,.6,0l2.81,1.62A.18.18,0,0,1,277.39,178.59Z" style="fill:#ffbda7"></path><path d="M277.39,178.59l-3.88,2.23a.64.64,0,0,1-.6,0l-2.81-1.62a.18.18,0,0,1,0-.34l3.88-2.23a.7.7,0,0,1,.6,0l2.81,1.62A.18.18,0,0,1,277.39,178.59Z" style="fill:#ffbda7"></path><path d="M272.92,181.47l-2.8-1.61a.69.69,0,0,1-.31-.5.63.63,0,0,1,.25-.47c-.12.09-.11.23,0,.31l2.81,1.62a.58.58,0,0,0,.3.07h0v.66A.7.7,0,0,1,272.92,181.47Z" style="fill:#ffbda7"></path><path d="M276.4,177.46v.72a.49.49,0,0,1-.21.37l-2.89,1.67a.47.47,0,0,1-.43,0l-1.56-.9a.4.4,0,0,1,0-.7l1.56-.9a1.91,1.91,0,0,0,.38-.31l1-1.15a.32.32,0,0,1,.38-.07l1.56.91A.47.47,0,0,1,276.4,177.46Z" style="fill:#ffbda7"></path><path d="M276.4,177.46v.72a.49.49,0,0,1-.21.37l-2.89,1.67a.47.47,0,0,1-.43,0l-1.56-.9a.4.4,0,0,1,0-.7l1.56-.9a1.91,1.91,0,0,0,.38-.31l1-1.15a.32.32,0,0,1,.38-.07l1.56.91A.47.47,0,0,1,276.4,177.46Z" style="fill:#ffbda7"></path><path d="M273.3,179.77l1.56-.9a1.85,1.85,0,0,0,.37-.31l1-1.16a.19.19,0,0,0-.05-.3l-1.56-.91a.32.32,0,0,0-.38.07l-1,1.15a1.91,1.91,0,0,1-.38.31l-1.56.9a.14.14,0,0,0,0,.25l1.56.9A.47.47,0,0,0,273.3,179.77Z" style="fill:#ffbda7"></path><path d="M276.19,177.1l-1.56-.91a.32.32,0,0,0-.38.07l-1,1.15a1,1,0,0,1-.19.17l2,1.15a1.52,1.52,0,0,0,.18-.17l1-1.16A.19.19,0,0,0,276.19,177.1Z" style="fill:#ffbda7"></path><path d="M273.06,179.82v.45a.67.67,0,0,1-.19-.05l-1.56-.9a.48.48,0,0,1-.21-.35.42.42,0,0,1,.18-.31c-.08.06-.07.15,0,.21l1.56.9A.45.45,0,0,0,273.06,179.82Z" style="fill:#ffbda7"></path><path d="M275.05,178.73l-2-1.15a.77.77,0,0,1-.19.14l-1.56.9a.14.14,0,0,0,0,.25l1.56.9a.47.47,0,0,0,.43,0l1.56-.9Z" style="fill:#ffbda7"></path><path d="M276.56,212.37a2.36,2.36,0,0,1-1.06-1.83V188.4l36.73,21.2V233Z" style="fill:#ffbda7"></path><polygon points="312.23 232.96 335.91 219.29 335.91 194.97 312.23 208.65 312.23 232.96" style="fill:#ffbda7"></polygon><polygon points="312.23 232.96 335.91 219.29 335.91 194.97 312.23 208.65 312.23 232.96" style="fill:#ffbda7"></polygon><path d="M338.79,187.86h0a.75.75,0,0,0-.44-.61l-37.6-21.71a2.39,2.39,0,0,0-2.12,0l-23.7,13.69a.75.75,0,0,0-.44.61h0V189a.75.75,0,0,0,.44.61l37.6,21.71a2.33,2.33,0,0,0,2.12,0l23.7-13.68a.75.75,0,0,0,.44-.61h0Zm-3.35,2.3Zm-57.6-8Z" style="fill:#ffbda7"></path><path d="M274.93,180.45l37.6,21.71a2.33,2.33,0,0,0,2.12,0l23.7-13.68a.65.65,0,0,0,0-1.23l-37.6-21.71a2.39,2.39,0,0,0-2.12,0l-23.7,13.69A.65.65,0,0,0,274.93,180.45Z" style="fill:#ffbda7"></path><path d="M312.53,202.16l-37.6-21.71a.75.75,0,0,1-.44-.61V189a.75.75,0,0,0,.44.61l37.6,21.71a2.16,2.16,0,0,0,1.06.26v-9.18A2.16,2.16,0,0,1,312.53,202.16Z" style="fill:#ffbda7"></path><path d="M298,177.42a1.94,1.94,0,0,1,.91-1.51l10.1-5.83a2,2,0,0,1,1.82,0l27.14,15.66a1.89,1.89,0,0,1,.87,1.53,2,2,0,0,1-.95,1.53l-10.06,5.82a2,2,0,0,1-1.82,0l-27.1-15.69A1.94,1.94,0,0,1,298,177.42Z" style="fill:#ffbda7"></path><path d="M298,177.42a1.94,1.94,0,0,1,.91-1.51l10.1-5.83a2,2,0,0,1,1.82,0l27.14,15.66a1.89,1.89,0,0,1,.87,1.53,2,2,0,0,1-.95,1.53l-10.06,5.82a2,2,0,0,1-1.82,0l-27.1-15.69A1.94,1.94,0,0,1,298,177.42Z" style="fill:#ffbda7"></path><path d="M298.87,177,326,192.63a2,2,0,0,0,1.81,0l10.11-5.84a.56.56,0,0,0,0-1l-27.14-15.66a2,2,0,0,0-1.82,0l-10.1,5.83A.55.55,0,0,0,298.87,177Z" style="fill:#ffbda7"></path><path d="M298.87,177,326,192.63a2,2,0,0,0,1.81,0l10.11-5.84a.56.56,0,0,0,0-1l-27.14-15.66a2,2,0,0,0-1.82,0l-10.1,5.83A.55.55,0,0,0,298.87,177Z" style="fill:#ffbda7"></path><path d="M327.79,194.62l10.07-5.82a2.06,2.06,0,0,0,.94-1.53,1.88,1.88,0,0,0-.74-1.44c.37.29.32.7-.13,1l-10.1,5.84a1.8,1.8,0,0,1-.91.22h0v2A1.89,1.89,0,0,0,327.79,194.62Z" style="fill:#ffbda7"></path><path d="M323.71,181.38l7.42,4.29a1.2,1.2,0,0,0,1.09,0l.61-.36c.3-.17.3-.45,0-.63l-7.42-4.28a1.23,1.23,0,0,0-1.09,0l-.61.35C323.41,180.93,323.41,181.21,323.71,181.38Z" style="fill:#ffbda7"></path><path d="M302.57,206a.66.66,0,0,0-.28.51v5.86a.66.66,0,0,0,.3.52l2,1.15a.6.6,0,0,0,.58,0,.67.67,0,0,0,.28-.52v-5.85a.65.65,0,0,0-.3-.51l-2-1.15A.66.66,0,0,0,302.57,206Z" style="fill:#ffbda7"></path><path d="M302.57,206a.66.66,0,0,0-.28.51v5.86a.66.66,0,0,0,.3.52l2,1.15a.6.6,0,0,0,.58,0,.67.67,0,0,0,.28-.52v-5.85a.65.65,0,0,0-.3-.51l-2-1.15A.66.66,0,0,0,302.57,206Z" style="fill:#ffbda7"></path><path d="M302.59,206.38l2,1.15a.69.69,0,0,1,.3.52v5.86c0,.19-.13.27-.3.17l-2-1.15a.66.66,0,0,1-.3-.52v-5.86C302.29,206.36,302.43,206.28,302.59,206.38Z" style="fill:#ffbda7"></path><path d="M302.59,206.38l2,1.15a.69.69,0,0,1,.3.52v5.86c0,.19-.13.27-.3.17l-2-1.15a.66.66,0,0,1-.3-.52v-5.86C302.29,206.36,302.43,206.28,302.59,206.38Z" style="fill:#ffbda7"></path><path d="M305.46,207.71v5.85a.67.67,0,0,1-.28.52.58.58,0,0,1-.53,0c.14.06.25,0,.25-.19v-5.86a.65.65,0,0,0-.09-.29h0l.56-.33A.61.61,0,0,1,305.46,207.71Z" style="fill:#ffbda7"></path><path d="M284.7,195.67a.63.63,0,0,0-.28.51V202a.65.65,0,0,0,.3.51l2,1.16a.63.63,0,0,0,.58,0,.7.7,0,0,0,.28-.52v-5.85a.63.63,0,0,0-.3-.51l-2-1.15A.66.66,0,0,0,284.7,195.67Z" style="fill:#ffbda7"></path><path d="M284.7,195.67a.63.63,0,0,0-.28.51V202a.65.65,0,0,0,.3.51l2,1.16a.63.63,0,0,0,.58,0,.7.7,0,0,0,.28-.52v-5.85a.63.63,0,0,0-.3-.51l-2-1.15A.66.66,0,0,0,284.7,195.67Z" style="fill:#ffbda7"></path><path d="M284.72,196l2,1.15a.66.66,0,0,1,.3.52v5.86c0,.19-.14.27-.3.17l-2-1.16a.65.65,0,0,1-.3-.51v-5.86C284.42,196,284.55,195.91,284.72,196Z" style="fill:#ffbda7"></path><path d="M284.72,196l2,1.15a.66.66,0,0,1,.3.52v5.86c0,.19-.14.27-.3.17l-2-1.16a.65.65,0,0,1-.3-.51v-5.86C284.42,196,284.55,195.91,284.72,196Z" style="fill:#ffbda7"></path><path d="M287.58,197.34v5.85a.7.7,0,0,1-.28.52.61.61,0,0,1-.53,0c.14.06.25,0,.25-.19v-5.86a.63.63,0,0,0-.08-.29h0l.56-.33A.6.6,0,0,1,287.58,197.34Z" style="fill:#ffbda7"></path><path d="M284.53,201.12l1.75,1V198l-3,1.8c-.28.15-.27.4,0,.56Z" style="fill:#ffbda7"></path><path d="M300,215.37l4.19-2.46v-4.58l-1.14-.66-3.05,1.8a1.1,1.1,0,0,1-1,0L285,201.41l-1.8-1c-.27-.16-.28-.41,0-.56l3-1.8-1.15-.66-4.19,2.45-.08.06a1.09,1.09,0,0,0-.4.79v3.45a1.06,1.06,0,0,0,.48.85l18,10.42A1.12,1.12,0,0,0,300,215.37Z" style="fill:#ffbda7"></path><path d="M300,210.79l4.19-2.46-1.14-.66-3.05,1.8a1.1,1.1,0,0,1-1,0L285,201.41l-1.8-1c-.27-.16-.28-.41,0-.56l3-1.8-1.15-.66-4.19,2.45-.08.06c-.18.16-.15.37.08.51L299,210.79A1.1,1.1,0,0,0,300,210.79Z" style="fill:#ffbda7"></path><path d="M286.4,214.08a1.17,1.17,0,0,0-.52-.92L284,212.05a.36.36,0,0,0-.37,0l-1,.57a.39.39,0,0,0-.15.34V214a1.15,1.15,0,0,0,.53.92l1.91,1.11a.38.38,0,0,0,.38,0l1-.57a.35.35,0,0,0,.15-.34Z" style="fill:#ffbda7"></path><path d="M283,212.63l1.91,1.1a1.18,1.18,0,0,1,.53.92v1.07c0,.34-.24.48-.53.31L283,214.92a1.15,1.15,0,0,1-.53-.92v-1.07C282.44,212.6,282.67,212.46,283,212.63Z" style="fill:#ffbda7"></path><path d="M286.4,214.08v1.07a.36.36,0,0,1-.15.34l-1,.55a.38.38,0,0,0,.12-.32v-1.07a1.14,1.14,0,0,0-.15-.52l1-.57A1,1,0,0,1,286.4,214.08Z" style="fill:#ffbda7"></path><path d="M286.25,213.56l-1,.57a1,1,0,0,0-.38-.39L283,212.63a.41.41,0,0,0-.36,0l1-.56a.36.36,0,0,1,.37,0l1.92,1.11A1.2,1.2,0,0,1,286.25,213.56Z" style="fill:#ffbda7"></path><path d="M292.36,217.52a1.15,1.15,0,0,0-.53-.92l-1.91-1.1a.38.38,0,0,0-.38,0l-1,.58a.35.35,0,0,0-.15.34v1.07a1.12,1.12,0,0,0,.53.91l1.91,1.11a.39.39,0,0,0,.37,0l1-.58a.37.37,0,0,0,.15-.34Z" style="fill:#ffbda7"></path><path d="M288.93,216.07l1.91,1.11a1.18,1.18,0,0,1,.53.91v1.07c0,.34-.24.48-.53.31l-1.91-1.11a1.12,1.12,0,0,1-.53-.91v-1.07C288.4,216,288.63,215.9,288.93,216.07Z" style="fill:#ffbda7"></path><path d="M292.36,217.52v1.07a.37.37,0,0,1-.15.34l-1,.56a.4.4,0,0,0,.12-.33v-1.07a1.18,1.18,0,0,0-.15-.52l1-.57A1.14,1.14,0,0,1,292.36,217.52Z" style="fill:#ffbda7"></path><path d="M292.21,217l-1,.57a1.09,1.09,0,0,0-.38-.39l-1.92-1.11a.41.41,0,0,0-.35,0l1-.56a.34.34,0,0,1,.37,0l1.91,1.1A1.22,1.22,0,0,1,292.21,217Z" style="fill:#ffbda7"></path><path d="M298.32,221a1.18,1.18,0,0,0-.53-.91l-1.91-1.11a.41.41,0,0,0-.38,0l-1,.58a.36.36,0,0,0-.16.34v1.07a1.18,1.18,0,0,0,.53.92l1.92,1.1a.34.34,0,0,0,.37,0l1-.57a.39.39,0,0,0,.15-.34Z" style="fill:#ffbda7"></path><path d="M294.88,219.52l1.92,1.1a1.18,1.18,0,0,1,.53.92v1.07c0,.34-.24.47-.53.3l-1.92-1.1a1.18,1.18,0,0,1-.53-.92v-1.07C294.35,219.48,294.59,219.35,294.88,219.52Z" style="fill:#ffbda7"></path><path d="M298.32,221V222a.38.38,0,0,1-.16.34l-1,.55a.41.41,0,0,0,.12-.32v-1.07a1.11,1.11,0,0,0-.15-.52l1-.57A1.11,1.11,0,0,1,298.32,221Z" style="fill:#ffbda7"></path><path d="M298.17,220.45l-1,.57a1.13,1.13,0,0,0-.38-.4l-1.92-1.1a.39.39,0,0,0-.35-.06c.17-.09.88-.51,1-.55a.38.38,0,0,1,.38,0l1.91,1.11A1,1,0,0,1,298.17,220.45Z" style="fill:#ffbda7"></path><path d="M325.79,207.7a1.14,1.14,0,0,1,.53-.91l1.91-1.11a.41.41,0,0,1,.38,0l1,.58a.35.35,0,0,1,.15.34v1.07a1.15,1.15,0,0,1-.53.92l-1.91,1.1a.37.37,0,0,1-.37,0l-1-.57a.4.4,0,0,1-.15-.35Z" style="fill:#ffbda7"></path><path d="M329.22,206.25l-1.91,1.11a1.18,1.18,0,0,0-.53.92v1.07c0,.33.24.47.53.3l1.91-1.1a1.15,1.15,0,0,0,.53-.92v-1.07C329.75,206.22,329.52,206.08,329.22,206.25Z" style="fill:#ffbda7"></path><path d="M325.79,207.7v1.07a.4.4,0,0,0,.15.35c.09,0,.78.45,1,.55a.39.39,0,0,1-.12-.32v-1.07a1.11,1.11,0,0,1,.15-.52l-1-.58A1.18,1.18,0,0,0,325.79,207.7Z" style="fill:#ffbda7"></path><path d="M325.94,207.18l1,.58a1,1,0,0,1,.38-.4l1.92-1.1a.39.39,0,0,1,.35-.06l-1-.56a.39.39,0,0,0-.37,0l-1.91,1.1A1.22,1.22,0,0,0,325.94,207.18Z" style="fill:#ffbda7"></path><path d="M319.83,211.15a1.18,1.18,0,0,1,.53-.92l1.91-1.11a.38.38,0,0,1,.38,0l1,.57a.38.38,0,0,1,.16.34v1.07a1.18,1.18,0,0,1-.53.92l-1.92,1.11a.36.36,0,0,1-.37,0l-1-.57a.38.38,0,0,1-.15-.34Z" style="fill:#ffbda7"></path><path d="M323.27,209.7l-1.92,1.1a1.18,1.18,0,0,0-.53.92v1.07c0,.34.24.47.53.31l1.92-1.11a1.18,1.18,0,0,0,.53-.92V210C323.8,209.67,323.56,209.53,323.27,209.7Z" style="fill:#ffbda7"></path><path d="M319.83,211.15v1.07a.36.36,0,0,0,.16.34l.95.55a.41.41,0,0,1-.12-.32v-1.07a1.14,1.14,0,0,1,.15-.52l-1-.57A1.11,1.11,0,0,0,319.83,211.15Z" style="fill:#ffbda7"></path><path d="M320,210.63l1,.57a1.13,1.13,0,0,1,.38-.4l1.92-1.1a.38.38,0,0,1,.35,0l-1-.56a.38.38,0,0,0-.38,0l-1.91,1.11A1.13,1.13,0,0,0,320,210.63Z" style="fill:#ffbda7"></path><path d="M313.87,214.59a1.18,1.18,0,0,1,.53-.92l1.92-1.1a.34.34,0,0,1,.37,0l1,.58a.37.37,0,0,1,.15.34v1.07a1.16,1.16,0,0,1-.53.91l-1.92,1.11a.39.39,0,0,1-.37,0l-1-.58a.35.35,0,0,1-.16-.34Z" style="fill:#ffbda7"></path><path d="M317.31,213.14l-1.92,1.11a1.16,1.16,0,0,0-.53.91v1.07c0,.34.24.48.53.31l1.92-1.11a1.16,1.16,0,0,0,.53-.91v-1.07C317.84,213.11,317.6,213,317.31,213.14Z" style="fill:#ffbda7"></path><path d="M313.87,214.59v1.07a.35.35,0,0,0,.16.34l1,.56a.42.42,0,0,1-.13-.33v-1.07a1.08,1.08,0,0,1,.16-.52l-1-.57A1.14,1.14,0,0,0,313.87,214.59Z" style="fill:#ffbda7"></path><path d="M314,214.07l1,.57a1.07,1.07,0,0,1,.37-.39l1.92-1.11a.39.39,0,0,1,.35,0l-1-.56a.34.34,0,0,0-.37,0l-1.92,1.1A1.22,1.22,0,0,0,314,214.07Z" style="fill:#ffbda7"></path><path d="M280.55,180.45V180h.12a1.64,1.64,0,0,1,.65-.63,4.13,4.13,0,0,1,3.75,0,1.64,1.64,0,0,1,.65.63h.12v.5h0a1.29,1.29,0,0,1-.77,1.08,4.13,4.13,0,0,1-3.75,0A1.31,1.31,0,0,1,280.55,180.45Z" style="fill:#ffbda7"></path><path d="M285.07,181a1.14,1.14,0,0,0,0-2.16,4.13,4.13,0,0,0-3.75,0,1.14,1.14,0,0,0,0,2.16A4.13,4.13,0,0,0,285.07,181Z" style="fill:#ffbda7"></path><path d="M281.14,179.75v-.87h.1a1.24,1.24,0,0,1,.5-.49,3.24,3.24,0,0,1,2.91,0,1.34,1.34,0,0,1,.51.49h.09v.87h0a1,1,0,0,1-.6.84,3.24,3.24,0,0,1-2.91,0A1,1,0,0,1,281.14,179.75Z" style="fill:#ffbda7"></path><path d="M281.14,179.75v-.87h.1a1.24,1.24,0,0,1,.5-.49,3.24,3.24,0,0,1,2.91,0,1.34,1.34,0,0,1,.51.49h.09v.87h0a1,1,0,0,1-.6.84,3.24,3.24,0,0,1-2.91,0A1,1,0,0,1,281.14,179.75Z" style="fill:#ffbda7"></path><path d="M284.65,179.71a.88.88,0,0,0,0-1.67,3.18,3.18,0,0,0-2.91,0,.88.88,0,0,0,0,1.67A3.18,3.18,0,0,0,284.65,179.71Z" style="fill:#ffbda7"></path><path d="M290.91,177.46l-2.17,1.25a.91.91,0,0,1-.79,0l-2.17-1.25c-.22-.13-.22-.34,0-.46l2.17-1.25a.85.85,0,0,1,.79,0l2.17,1.25C291.13,177.12,291.13,177.33,290.91,177.46Z" style="fill:#ffbda7"></path><path d="M290.91,177.46l-2.17,1.25a.91.91,0,0,1-.79,0l-2.17-1.25L288,176.2a.91.91,0,0,1,.79,0Z" style="fill:#ffbda7"></path><path d="M287.4,177.43V177h0a.59.59,0,0,1,.24-.23,1.48,1.48,0,0,1,1.33,0,.59.59,0,0,1,.24.23h0v.4h0a.45.45,0,0,1-.28.38,1.42,1.42,0,0,1-1.33,0A.45.45,0,0,1,287.4,177.43Z" style="fill:#ffbda7"></path><path d="M287.4,177.43V177h0a.59.59,0,0,1,.24-.23,1.48,1.48,0,0,1,1.33,0,.59.59,0,0,1,.24.23h0v.4h0a.45.45,0,0,1-.28.38,1.42,1.42,0,0,1-1.33,0A.45.45,0,0,1,287.4,177.43Z" style="fill:#ffbda7"></path><ellipse cx="288.35" cy="177.03" rx="0.95" ry="0.55" style="fill:#ffbda7"></ellipse><path d="M295.18,175,293,176.24a.85.85,0,0,1-.79,0L290.05,175c-.22-.13-.22-.33,0-.45l2.17-1.26a.91.91,0,0,1,.79,0l2.17,1.26C295.4,174.66,295.4,174.86,295.18,175Z" style="fill:#ffbda7"></path><path d="M295.18,175,293,176.24a.85.85,0,0,1-.79,0L290.05,175l2.17-1.25a.85.85,0,0,1,.79,0Z" style="fill:#ffbda7"></path><path d="M291.67,175v-.4h0a.58.58,0,0,1,.24-.22,1.42,1.42,0,0,1,1.33,0,.58.58,0,0,1,.24.22h0v.4h0a.47.47,0,0,1-.28.39,1.48,1.48,0,0,1-1.33,0A.47.47,0,0,1,291.67,175Z" style="fill:#ffbda7"></path><path d="M291.67,175v-.4h0a.58.58,0,0,1,.24-.22,1.42,1.42,0,0,1,1.33,0,.58.58,0,0,1,.24.22h0v.4h0a.47.47,0,0,1-.28.39,1.48,1.48,0,0,1-1.33,0A.47.47,0,0,1,291.67,175Z" style="fill:#ffbda7"></path><path d="M293.28,175a.41.41,0,0,0,0-.78,1.48,1.48,0,0,0-1.33,0,.41.41,0,0,0,0,.78A1.48,1.48,0,0,0,293.28,175Z" style="fill:#ffbda7"></path><path d="M296.75,187.7V187h.17a2.29,2.29,0,0,1,.92-.87,5.76,5.76,0,0,1,5.21,0,2.26,2.26,0,0,1,.91.87h.17v.7h0a1.84,1.84,0,0,1-1.08,1.51,5.76,5.76,0,0,1-5.21,0A1.83,1.83,0,0,1,296.75,187.7Z" style="fill:#ffbda7"></path><path d="M303.05,188.51c1.44-.83,1.44-2.18,0-3a5.76,5.76,0,0,0-5.21,0c-1.45.83-1.45,2.18,0,3A5.76,5.76,0,0,0,303.05,188.51Z" style="fill:#ffbda7"></path><path d="M301.28,178.21v-2.14a3.73,3.73,0,0,0-1.86-3.23L277.18,160a.84.84,0,0,0-.84,1.46l22.23,12.84a2,2,0,0,1,1,1.77v2.14h0v8.48a.39.39,0,0,0,.25.33,1.36,1.36,0,0,0,1.21,0,.44.44,0,0,0,.25-.33v-8.48Z" style="fill:#ffbda7"></path><path d="M268.79,158.13h0c1,1.81,20.38,14.26,25.4,17.17a1.94,1.94,0,0,0,2-.16,6.23,6.23,0,0,0,2.81-4.87,1.94,1.94,0,0,0-.88-1.85c-5.05-2.91-25-13.55-27.75-13.42a2,2,0,0,0-1.62,3.13Z" style="fill:#ffbda7"></path><path d="M268.79,158.13h0c1,1.81,20.38,14.26,25.4,17.17a1.94,1.94,0,0,0,2-.16,6.23,6.23,0,0,0,2.81-4.87,1.94,1.94,0,0,0-.88-1.85c-5.05-2.91-25-13.55-27.75-13.42a2,2,0,0,0-1.62,3.13Z" style="fill:#ffbda7"></path><path d="M296.23,175.14a5.15,5.15,0,0,0,.68-.5c-6.32-3.63-22.93-13.12-25.46-15-2.73-2-2.91-3.1-2.51-4a2,2,0,0,0-.52,1.32,2,2,0,0,0,.37,1.15h0c1,1.81,20.38,14.26,25.4,17.17A1.94,1.94,0,0,0,296.23,175.14Z" style="fill:#ffbda7"></path><polygon points="314.86 219.29 325.38 213.21 325.38 222.32 314.86 228.41 314.86 219.29" style="fill:#ffbda7"></polygon><polygon points="314.86 227.69 324.76 221.97 324.76 213.57 314.86 219.29 314.86 227.69" style="fill:#ffbda7"></polygon><polygon points="314.86 227.69 324.76 221.97 324.76 213.57 314.86 219.29 314.86 227.69" style="fill:#ffbda7"></polygon><path d="M263.7,163.18c-1.79-1.05-4.27-.91-7,.67-5.49,3.15-10,10.85-10,17.18,0,3.1,1.06,5.3,2.79,6.36.58.36,4.49,2.47,5,2.8,1.79,1.05,4.27.91,7-.67,5.49-3.16,10-10.85,10-17.18,0-3.13-1.08-5.33-2.84-6.38C268.13,165.61,264.25,163.5,263.7,163.18Z" style="fill:#455a64"></path><path d="M247.87,185.73c.06.09.11.18.17.26l-.19-.27h0Z" style="fill:#455a64"></path><path d="M251.65,183.77c0,6.33,4.43,8.91,9.92,5.75s10-10.85,10-17.18-4.43-8.91-9.92-5.76S251.66,177.43,251.65,183.77Z" style="fill:#37474f"></path><path d="M254.31,190.05l-.1-.05-.08-.05-.16-.09-.14-.07-.29-.16-.68-.38-2.37-1.3c-.21-.13-.4-.23-.55-.31l-.43-.25a5.64,5.64,0,0,1-.63-.46l-.27-.26a3.73,3.73,0,0,1-.41-.47L248,186c-.06-.08-.11-.17-.17-.26h0a8.86,8.86,0,0,1-1.13-4.69,18.21,18.21,0,0,1,1.36-6.55c.11-.29.23-.56.35-.83s.18-.41.28-.61.19-.41.29-.61a0,0,0,0,1,0,0l4.89,2.83a19.57,19.57,0,0,0-2.25,8.52,8.92,8.92,0,0,0,1.1,4.64A5.23,5.23,0,0,0,254.31,190.05Z" style="opacity:0.15"></path><path d="M270.75,170h0l-.25-.14c-1.48-.78-3.5-.63-5.71.64-4.58,2.64-8.3,9.05-8.31,14.34a8.54,8.54,0,0,0,.35,2.59,5.09,5.09,0,0,0,1.49,2.37,3.68,3.68,0,0,0,.51.37h0l0,0,0,0,.14.08,5.56,3.22a4.34,4.34,0,0,1-.64-.49,6.36,6.36,0,0,1-1.71-4.85c0-5.28,3.73-11.69,8.31-14.33a6.35,6.35,0,0,1,5.05-.91,3.36,3.36,0,0,1,.68.28Z" style="fill:#407BFF"></path><path d="M270.75,170h0l-.25-.14c-1.48-.78-3.5-.63-5.71.64-4.58,2.64-8.3,9.05-8.31,14.34a8.54,8.54,0,0,0,.35,2.59,5.09,5.09,0,0,0,1.49,2.37,3.68,3.68,0,0,0,.51.37h0l0,0,0,0,.14.08,5.56,3.22a4.34,4.34,0,0,1-.64-.49,6.36,6.36,0,0,1-1.71-4.85c0-5.28,3.73-11.69,8.31-14.33a6.35,6.35,0,0,1,5.05-.91,3.36,3.36,0,0,1,.68.28Z" style="opacity:0.25"></path><path d="M258.31,189.83a3.17,3.17,0,0,0,.51.37l-2.94-1.7h0l0,0c-1.48-.88-2.39-2.73-2.38-5.35,0-5.27,3.73-11.69,8.31-14.32a7.47,7.47,0,0,1,3.7-1.13,4.42,4.42,0,0,1,2.16.56l2.86,1.66c-1.48-.78-3.5-.63-5.71.64-4.58,2.64-8.3,9.05-8.31,14.34a8.54,8.54,0,0,0,.35,2.59A4.89,4.89,0,0,0,258.31,189.83Z" style="fill:#455a64"></path><path d="M287.84,183.91c0,5.28-3.73,11.69-8.31,14.32a7.47,7.47,0,0,1-3.7,1.13,4.23,4.23,0,0,1-2.14-.55h0l-9-5.2-.12-.07a4.34,4.34,0,0,1-.64-.49,6.36,6.36,0,0,1-1.71-4.85c0-5.28,3.73-11.69,8.31-14.33a6.35,6.35,0,0,1,5.05-.91,3.36,3.36,0,0,1,.68.28l0,0,.24.13,8.87,5.14h0C286.92,179.4,287.85,181.26,287.84,183.91Z" style="fill:#37474f"></path><path d="M261.72,191.2a.27.27,0,0,1-.12,0l-3.14-1.81a.25.25,0,1,1,.25-.43l3.14,1.8a.25.25,0,0,1,.09.34A.26.26,0,0,1,261.72,191.2Z" style="fill:#37474f"></path><path d="M261.1,189a.28.28,0,0,1-.12,0l-3.14-1.8a.25.25,0,1,1,.25-.43l3.14,1.8a.25.25,0,0,1,.09.34A.26.26,0,0,1,261.1,189Z" style="fill:#37474f"></path><path d="M260.88,186.86a.31.31,0,0,1-.13,0L257.62,185a.25.25,0,1,1,.25-.43l3.13,1.8a.26.26,0,0,1,.09.35A.24.24,0,0,1,260.88,186.86Z" style="fill:#37474f"></path><path d="M261,184.94a.31.31,0,0,1-.13,0l-3.13-1.81a.25.25,0,1,1,.25-.43l3.13,1.8a.26.26,0,0,1,.09.35A.24.24,0,0,1,261,184.94Z" style="fill:#37474f"></path><path d="M261.53,183.1a.31.31,0,0,1-.13,0l-3.13-1.81a.25.25,0,0,1,.25-.43l3.13,1.8a.26.26,0,0,1,.1.35A.25.25,0,0,1,261.53,183.1Z" style="fill:#37474f"></path><path d="M262.27,181.28a.28.28,0,0,1-.13,0L259,179.44a.25.25,0,1,1,.25-.43l3.14,1.81a.24.24,0,0,1,.09.34A.24.24,0,0,1,262.27,181.28Z" style="fill:#37474f"></path><path d="M263.19,179.52a.28.28,0,0,1-.13,0l-3.14-1.81a.25.25,0,0,1,.25-.43l3.14,1.8a.26.26,0,0,1,.09.35A.24.24,0,0,1,263.19,179.52Z" style="fill:#37474f"></path><path d="M264.27,177.85a.28.28,0,0,1-.13,0L261,176a.25.25,0,0,1-.09-.34.26.26,0,0,1,.34-.1l3.14,1.81a.25.25,0,0,1,.09.34A.24.24,0,0,1,264.27,177.85Z" style="fill:#37474f"></path><path d="M265.49,176.32a.28.28,0,0,1-.13,0l-3.14-1.81a.25.25,0,1,1,.25-.43l3.14,1.8a.26.26,0,0,1,.09.35A.24.24,0,0,1,265.49,176.32Z" style="fill:#37474f"></path><path d="M266.83,175a.2.2,0,0,1-.13,0l-3.14-1.8a.25.25,0,1,1,.25-.43l3.14,1.8a.25.25,0,0,1-.12.47Z" style="fill:#37474f"></path><path d="M268.26,173.8l-.12,0L265,172a.25.25,0,1,1,.25-.43l3.14,1.8a.25.25,0,0,1,.09.34A.26.26,0,0,1,268.26,173.8Z" style="fill:#37474f"></path><path d="M270,172.79a.27.27,0,0,1-.12,0L266.71,171a.25.25,0,1,1,.25-.43l3.14,1.8a.25.25,0,0,1,.09.34A.26.26,0,0,1,270,172.79Z" style="fill:#37474f"></path><path d="M272,172.12a.22.22,0,0,1-.13,0l-3.13-1.8a.25.25,0,1,1,.25-.43l3.13,1.8a.25.25,0,0,1,.1.34A.26.26,0,0,1,272,172.12Z" style="fill:#37474f"></path><path d="M273.35,188.58a16.12,16.12,0,0,0-1.2,5.78,7.75,7.75,0,0,0,1,4.14l-8.44-4.89-.12-.07h0L259,190.32l-.13-.08,0,0,0,0h0l-2.94-1.7h0l0,0c-1.47-.88-2.38-2.73-2.37-5.35a15,15,0,0,1,1.13-5.44Z" style="opacity:0.15"></path><path d="M299.7,171.13V196.2a2.36,2.36,0,0,1-1.06,1.84l-23.09,13.32-.23.11a2.43,2.43,0,0,1-1.64,0,.74.74,0,0,1-.24-.11l-.65-.37-1.41-.82v-.32l-1.7-1-.28.16h0l-1.41-.82-.28-.16h0a2.39,2.39,0,0,1-.67-.59,2.58,2.58,0,0,1-.34-.66s0-.09-.05-.14l0-.14,0-.13v0h0a.91.91,0,0,1,0-.17v-.11l.08-25.48h0v0h0a2.34,2.34,0,0,1,.25-.56h0a1.86,1.86,0,0,1,.59-.65l.06-.05.06,0,.49-.29,22.75-13.14h0a1.81,1.81,0,0,1,1.8,0l6,3.46A2.34,2.34,0,0,1,299.7,171.13Z" style="fill:#455a64"></path><path d="M275.55,211.36l-.23.11a2,2,0,0,1-.83.18,1.88,1.88,0,0,1-.81-.18.74.74,0,0,1-.24-.11l-.65-.37-1.41-.82v-.32l-1.7-1-.28.16h0l-1.41-.82-.28-.16h0a2.39,2.39,0,0,1-.67-.59,2.58,2.58,0,0,1-.34-.66s0-.09-.05-.14l0-.14,0-.13v0h0a2.53,2.53,0,0,1,0-.28v-25a3.53,3.53,0,0,1,.08-.54,2.34,2.34,0,0,1,.25-.56h0a1.09,1.09,0,0,0,.26.21l7.64,4.42a2.19,2.19,0,0,0-.3,1v25.07Z" style="fill:#263238"></path><path d="M298.64,170.52l-23.08,13.32a2.33,2.33,0,0,0-1.06,1.84v25.07c0,.68.47.95,1.06.61L298.64,198a2.36,2.36,0,0,0,1.06-1.84V171.13C299.7,170.45,299.22,170.18,298.64,170.52Z" style="fill:#37474f"></path><path d="M272.79,193.87V211l-1.41-.82v-.33l-1.7-1-.28.16h0l-1.41-.82V191.09c0-.68.48-1,1.06-.62l2.7,1.56A2.35,2.35,0,0,1,272.79,193.87Z" style="fill:#455a64"></path><path d="M271.38,203.8v6l-1.7-1-.28.16h0v-6.38c0-.22.13-.33.3-.29a.31.31,0,0,1,.12,0l1.15.66A.94.94,0,0,1,271.38,203.8Z" style="fill:#263238"></path><path d="M271.38,203.8v6l-1.7-1v-6.38a.53.53,0,0,1,0-.13.31.31,0,0,1,.12,0l1.15.66A.94.94,0,0,1,271.38,203.8Z" style="fill:#37474f"></path><path d="M270.26,203.61l-.22.12v0a.25.25,0,0,0,0,.16.73.73,0,0,0,.34.58.24.24,0,0,0,.15,0l0,0,.21-.13h0c.07,0,.1-.11.1-.22a.76.76,0,0,0-.33-.58A.24.24,0,0,0,270.26,203.61Z" style="fill:#407BFF"></path><path d="M270.26,203.61l-.22.12v0a.25.25,0,0,0,0,.16.73.73,0,0,0,.34.58.24.24,0,0,0,.15,0l0,0,.21-.13h0c.07,0,.1-.11.1-.22a.76.76,0,0,0-.33-.58A.24.24,0,0,0,270.26,203.61Z" style="opacity:0.15"></path><path d="M270.61,204.34c0,.22-.15.3-.33.2a.75.75,0,0,1-.34-.59c0-.21.15-.3.34-.19A.74.74,0,0,1,270.61,204.34Z" style="fill:#407BFF"></path><path d="M270.1,193.68l-.48.28,0,0a.61.61,0,0,0-.09.35,1.64,1.64,0,0,0,.74,1.28.72.72,0,0,0,.35.1l0,0,.48-.28h0a.52.52,0,0,0,.22-.48,1.64,1.64,0,0,0-.74-1.28A.52.52,0,0,0,270.1,193.68Z" style="fill:#407BFF"></path><path d="M270.1,193.68l-.48.28,0,0a.61.61,0,0,0-.09.35,1.64,1.64,0,0,0,.74,1.28.72.72,0,0,0,.35.1l0,0,.48-.28h0a.52.52,0,0,0,.22-.48,1.64,1.64,0,0,0-.74-1.28A.52.52,0,0,0,270.1,193.68Z" style="opacity:0.15"></path><path d="M270.89,195.29c0,.47-.34.66-.74.43a1.64,1.64,0,0,1-.74-1.28c0-.48.33-.67.74-.43A1.65,1.65,0,0,1,270.89,195.29Z" style="fill:#407BFF"></path><path d="M270.26,205.92l-.22.13v0a.25.25,0,0,0,0,.16.73.73,0,0,0,.34.58.24.24,0,0,0,.15.05l0,0,.21-.13h0c.07,0,.1-.11.1-.22a.76.76,0,0,0-.33-.58A.24.24,0,0,0,270.26,205.92Z" style="fill:#407BFF"></path><path d="M270.26,205.92l-.22.13v0a.25.25,0,0,0,0,.16.73.73,0,0,0,.34.58.24.24,0,0,0,.15.05l0,0,.21-.13h0c.07,0,.1-.11.1-.22a.76.76,0,0,0-.33-.58A.24.24,0,0,0,270.26,205.92Z" style="opacity:0.15"></path><path d="M270.61,206.66c0,.21-.15.3-.33.19a.73.73,0,0,1-.34-.58c0-.22.15-.3.34-.2A.76.76,0,0,1,270.61,206.66Z" style="fill:#407BFF"></path><path d="M270.21,197.1l-.3.17,0,0a.33.33,0,0,0-.05.21,1,1,0,0,0,.45.8.49.49,0,0,0,.22.06v0l.3-.17h0a.32.32,0,0,0,.13-.29,1,1,0,0,0-.45-.8A.33.33,0,0,0,270.21,197.1Z" style="fill:#263238"></path><path d="M270.7,198.1c0,.29-.21.41-.46.26a1,1,0,0,1-.46-.79c0-.29.2-.41.46-.27A1,1,0,0,1,270.7,198.1Z" style="fill:#37474f"></path><path d="M270.21,199.61l-.3.17,0,0a.38.38,0,0,0-.05.22,1,1,0,0,0,.45.79.4.4,0,0,0,.22.07v0l.3-.17h0a.33.33,0,0,0,.13-.3,1,1,0,0,0-.45-.79A.33.33,0,0,0,270.21,199.61Z" style="fill:#263238"></path><path d="M270.7,200.6c0,.3-.21.41-.46.27a1,1,0,0,1-.46-.79c0-.3.2-.42.46-.27A1,1,0,0,1,270.7,200.6Z" style="fill:#37474f"></path><path d="M277.69,178.74a.65.65,0,0,0-.3-.49l-2.81-1.62a.7.7,0,0,0-.6,0l-3.88,2.23a.62.62,0,0,0-.29.5.73.73,0,0,0,.31.51l2.8,1.6a.64.64,0,0,0,.6,0l3.87-2.23A.65.65,0,0,0,277.69,178.74Z" style="fill:#407BFF"></path><path d="M277.69,178.74a.65.65,0,0,0-.3-.49l-2.81-1.62a.7.7,0,0,0-.6,0l-3.88,2.23a.62.62,0,0,0-.29.5.73.73,0,0,0,.31.51l2.8,1.6a.64.64,0,0,0,.6,0l3.87-2.23A.65.65,0,0,0,277.69,178.74Z" style="fill:#fff;opacity:0.2"></path><path d="M277.39,178.59l-3.88,2.23a.64.64,0,0,1-.6,0l-2.81-1.62a.18.18,0,0,1,0-.34l3.88-2.23a.7.7,0,0,1,.6,0l2.81,1.62A.18.18,0,0,1,277.39,178.59Z" style="fill:#407BFF"></path><path d="M277.39,178.59l-3.88,2.23a.64.64,0,0,1-.6,0l-2.81-1.62a.18.18,0,0,1,0-.34l3.88-2.23a.7.7,0,0,1,.6,0l2.81,1.62A.18.18,0,0,1,277.39,178.59Z" style="fill:#fff;opacity:0.5"></path><path d="M272.92,181.47l-2.8-1.61a.69.69,0,0,1-.31-.5.63.63,0,0,1,.25-.47c-.12.09-.11.23,0,.31l2.81,1.62a.58.58,0,0,0,.3.07h0v.66A.7.7,0,0,1,272.92,181.47Z" style="opacity:0.15"></path><path d="M276.4,177.46v.72a.49.49,0,0,1-.21.37l-2.89,1.67a.47.47,0,0,1-.43,0l-1.56-.9a.4.4,0,0,1,0-.7l1.56-.9a1.91,1.91,0,0,0,.38-.31l1-1.15a.32.32,0,0,1,.38-.07l1.56.91A.47.47,0,0,1,276.4,177.46Z" style="fill:#407BFF"></path><path d="M276.4,177.46v.72a.49.49,0,0,1-.21.37l-2.89,1.67a.47.47,0,0,1-.43,0l-1.56-.9a.4.4,0,0,1,0-.7l1.56-.9a1.91,1.91,0,0,0,.38-.31l1-1.15a.32.32,0,0,1,.38-.07l1.56.91A.47.47,0,0,1,276.4,177.46Z" style="opacity:0.30000000000000004"></path><path d="M273.3,179.77l1.56-.9a1.85,1.85,0,0,0,.37-.31l1-1.16a.19.19,0,0,0-.05-.3l-1.56-.91a.32.32,0,0,0-.38.07l-1,1.15a1.91,1.91,0,0,1-.38.31l-1.56.9a.14.14,0,0,0,0,.25l1.56.9A.47.47,0,0,0,273.3,179.77Z" style="fill:#407BFF"></path><path d="M276.19,177.1l-1.56-.91a.32.32,0,0,0-.38.07l-1,1.15a1,1,0,0,1-.19.17l2,1.15a1.52,1.52,0,0,0,.18-.17l1-1.16A.19.19,0,0,0,276.19,177.1Z" style="opacity:0.15"></path><path d="M273.06,179.82v.45a.67.67,0,0,1-.19-.05l-1.56-.9a.48.48,0,0,1-.21-.35.42.42,0,0,1,.18-.31c-.08.06-.07.15,0,.21l1.56.9A.45.45,0,0,0,273.06,179.82Z" style="opacity:0.15"></path><path d="M275.05,178.73l-2-1.15a.77.77,0,0,1-.19.14l-1.56.9a.14.14,0,0,0,0,.25l1.56.9a.47.47,0,0,0,.43,0l1.56-.9Z" style="opacity:0.05"></path><path d="M276.56,212.37a2.36,2.36,0,0,1-1.06-1.83V188.4l36.73,21.2V233Z" style="fill:#263238"></path><polygon points="312.23 232.96 335.91 219.29 335.91 194.97 312.23 208.65 312.23 232.96" style="fill:#37474f"></polygon><polygon points="312.23 232.96 335.91 219.29 335.91 194.97 312.23 208.65 312.23 232.96" style="opacity:0.15"></polygon><path d="M338.79,187.86h0a.75.75,0,0,0-.44-.61l-37.6-21.71a2.39,2.39,0,0,0-2.12,0l-23.7,13.69a.75.75,0,0,0-.44.61h0V189a.75.75,0,0,0,.44.61l37.6,21.71a2.33,2.33,0,0,0,2.12,0l23.7-13.68a.75.75,0,0,0,.44-.61h0Zm-3.35,2.3Zm-57.6-8Z" style="fill:#37474f"></path><path d="M274.93,180.45l37.6,21.71a2.33,2.33,0,0,0,2.12,0l23.7-13.68a.65.65,0,0,0,0-1.23l-37.6-21.71a2.39,2.39,0,0,0-2.12,0l-23.7,13.69A.65.65,0,0,0,274.93,180.45Z" style="fill:#455a64"></path><path d="M312.53,202.16l-37.6-21.71a.75.75,0,0,1-.44-.61V189a.75.75,0,0,0,.44.61l37.6,21.71a2.16,2.16,0,0,0,1.06.26v-9.18A2.16,2.16,0,0,1,312.53,202.16Z" style="fill:#263238"></path><path d="M298,177.42a1.94,1.94,0,0,1,.91-1.51l10.1-5.83a2,2,0,0,1,1.82,0l27.14,15.66a1.89,1.89,0,0,1,.87,1.53,2,2,0,0,1-.95,1.53l-10.06,5.82a2,2,0,0,1-1.82,0l-27.1-15.69A1.94,1.94,0,0,1,298,177.42Z" style="fill:#407BFF"></path><path d="M298,177.42a1.94,1.94,0,0,1,.91-1.51l10.1-5.83a2,2,0,0,1,1.82,0l27.14,15.66a1.89,1.89,0,0,1,.87,1.53,2,2,0,0,1-.95,1.53l-10.06,5.82a2,2,0,0,1-1.82,0l-27.1-15.69A1.94,1.94,0,0,1,298,177.42Z" style="opacity:0.30000000000000004"></path><path d="M298.87,177,326,192.63a2,2,0,0,0,1.81,0l10.11-5.84a.56.56,0,0,0,0-1l-27.14-15.66a2,2,0,0,0-1.82,0l-10.1,5.83A.55.55,0,0,0,298.87,177Z" style="fill:#407BFF"></path><path d="M298.87,177,326,192.63a2,2,0,0,0,1.81,0l10.11-5.84a.56.56,0,0,0,0-1l-27.14-15.66a2,2,0,0,0-1.82,0l-10.1,5.83A.55.55,0,0,0,298.87,177Z" style="opacity:0.15"></path><path d="M327.79,194.62l10.07-5.82a2.06,2.06,0,0,0,.94-1.53,1.88,1.88,0,0,0-.74-1.44c.37.29.32.7-.13,1l-10.1,5.84a1.8,1.8,0,0,1-.91.22h0v2A1.89,1.89,0,0,0,327.79,194.62Z" style="opacity:0.1"></path><path d="M323.71,181.38l7.42,4.29a1.2,1.2,0,0,0,1.09,0l.61-.36c.3-.17.3-.45,0-.63l-7.42-4.28a1.23,1.23,0,0,0-1.09,0l-.61.35C323.41,180.93,323.41,181.21,323.71,181.38Z" style="fill:#e6e6e6"></path><path d="M302.57,206a.66.66,0,0,0-.28.51v5.86a.66.66,0,0,0,.3.52l2,1.15a.6.6,0,0,0,.58,0,.67.67,0,0,0,.28-.52v-5.85a.65.65,0,0,0-.3-.51l-2-1.15A.66.66,0,0,0,302.57,206Z" style="fill:#407BFF"></path><path d="M302.57,206a.66.66,0,0,0-.28.51v5.86a.66.66,0,0,0,.3.52l2,1.15a.6.6,0,0,0,.58,0,.67.67,0,0,0,.28-.52v-5.85a.65.65,0,0,0-.3-.51l-2-1.15A.66.66,0,0,0,302.57,206Z" style="fill:#fff;opacity:0.2"></path><path d="M302.59,206.38l2,1.15a.69.69,0,0,1,.3.52v5.86c0,.19-.13.27-.3.17l-2-1.15a.66.66,0,0,1-.3-.52v-5.86C302.29,206.36,302.43,206.28,302.59,206.38Z" style="fill:#407BFF"></path><path d="M302.59,206.38l2,1.15a.69.69,0,0,1,.3.52v5.86c0,.19-.13.27-.3.17l-2-1.15a.66.66,0,0,1-.3-.52v-5.86C302.29,206.36,302.43,206.28,302.59,206.38Z" style="fill:#fff;opacity:0.5"></path><path d="M305.46,207.71v5.85a.67.67,0,0,1-.28.52.58.58,0,0,1-.53,0c.14.06.25,0,.25-.19v-5.86a.65.65,0,0,0-.09-.29h0l.56-.33A.61.61,0,0,1,305.46,207.71Z" style="opacity:0.15"></path><path d="M284.7,195.67a.63.63,0,0,0-.28.51V202a.65.65,0,0,0,.3.51l2,1.16a.63.63,0,0,0,.58,0,.7.7,0,0,0,.28-.52v-5.85a.63.63,0,0,0-.3-.51l-2-1.15A.66.66,0,0,0,284.7,195.67Z" style="fill:#407BFF"></path><path d="M284.7,195.67a.63.63,0,0,0-.28.51V202a.65.65,0,0,0,.3.51l2,1.16a.63.63,0,0,0,.58,0,.7.7,0,0,0,.28-.52v-5.85a.63.63,0,0,0-.3-.51l-2-1.15A.66.66,0,0,0,284.7,195.67Z" style="fill:#fff;opacity:0.2"></path><path d="M284.72,196l2,1.15a.66.66,0,0,1,.3.52v5.86c0,.19-.14.27-.3.17l-2-1.16a.65.65,0,0,1-.3-.51v-5.86C284.42,196,284.55,195.91,284.72,196Z" style="fill:#407BFF"></path><path d="M284.72,196l2,1.15a.66.66,0,0,1,.3.52v5.86c0,.19-.14.27-.3.17l-2-1.16a.65.65,0,0,1-.3-.51v-5.86C284.42,196,284.55,195.91,284.72,196Z" style="fill:#fff;opacity:0.5"></path><path d="M287.58,197.34v5.85a.7.7,0,0,1-.28.52.61.61,0,0,1-.53,0c.14.06.25,0,.25-.19v-5.86a.63.63,0,0,0-.08-.29h0l.56-.33A.6.6,0,0,1,287.58,197.34Z" style="opacity:0.15"></path><path d="M284.53,201.12l1.75,1V198l-3,1.8c-.28.15-.27.4,0,.56Z"></path><path d="M300,215.37l4.19-2.46v-4.58l-1.14-.66-3.05,1.8a1.1,1.1,0,0,1-1,0L285,201.41l-1.8-1c-.27-.16-.28-.41,0-.56l3-1.8-1.15-.66-4.19,2.45-.08.06a1.09,1.09,0,0,0-.4.79v3.45a1.06,1.06,0,0,0,.48.85l18,10.42A1.12,1.12,0,0,0,300,215.37Z" style="fill:#37474f"></path><path d="M300,210.79l4.19-2.46-1.14-.66-3.05,1.8a1.1,1.1,0,0,1-1,0L285,201.41l-1.8-1c-.27-.16-.28-.41,0-.56l3-1.8-1.15-.66-4.19,2.45-.08.06c-.18.16-.15.37.08.51L299,210.79A1.1,1.1,0,0,0,300,210.79Z" style="fill:#263238"></path><path d="M286.4,214.08a1.17,1.17,0,0,0-.52-.92L284,212.05a.36.36,0,0,0-.37,0l-1,.57a.39.39,0,0,0-.15.34V214a1.15,1.15,0,0,0,.53.92l1.91,1.11a.38.38,0,0,0,.38,0l1-.57a.35.35,0,0,0,.15-.34Z" style="fill:#407BFF"></path><path d="M283,212.63l1.91,1.1a1.18,1.18,0,0,1,.53.92v1.07c0,.34-.24.48-.53.31L283,214.92a1.15,1.15,0,0,1-.53-.92v-1.07C282.44,212.6,282.67,212.46,283,212.63Z" style="fill:#407BFF"></path><path d="M286.4,214.08v1.07a.36.36,0,0,1-.15.34l-1,.55a.38.38,0,0,0,.12-.32v-1.07a1.14,1.14,0,0,0-.15-.52l1-.57A1,1,0,0,1,286.4,214.08Z" style="opacity:0.15"></path><path d="M286.25,213.56l-1,.57a1,1,0,0,0-.38-.39L283,212.63a.41.41,0,0,0-.36,0l1-.56a.36.36,0,0,1,.37,0l1.92,1.11A1.2,1.2,0,0,1,286.25,213.56Z" style="opacity:0.25"></path><path d="M292.36,217.52a1.15,1.15,0,0,0-.53-.92l-1.91-1.1a.38.38,0,0,0-.38,0l-1,.58a.35.35,0,0,0-.15.34v1.07a1.12,1.12,0,0,0,.53.91l1.91,1.11a.39.39,0,0,0,.37,0l1-.58a.37.37,0,0,0,.15-.34Z" style="fill:#407BFF"></path><path d="M288.93,216.07l1.91,1.11a1.18,1.18,0,0,1,.53.91v1.07c0,.34-.24.48-.53.31l-1.91-1.11a1.12,1.12,0,0,1-.53-.91v-1.07C288.4,216,288.63,215.9,288.93,216.07Z" style="fill:#407BFF"></path><path d="M292.36,217.52v1.07a.37.37,0,0,1-.15.34l-1,.56a.4.4,0,0,0,.12-.33v-1.07a1.18,1.18,0,0,0-.15-.52l1-.57A1.14,1.14,0,0,1,292.36,217.52Z" style="opacity:0.15"></path><path d="M292.21,217l-1,.57a1.09,1.09,0,0,0-.38-.39l-1.92-1.11a.41.41,0,0,0-.35,0l1-.56a.34.34,0,0,1,.37,0l1.91,1.1A1.22,1.22,0,0,1,292.21,217Z" style="opacity:0.25"></path><path d="M298.32,221a1.18,1.18,0,0,0-.53-.91l-1.91-1.11a.41.41,0,0,0-.38,0l-1,.58a.36.36,0,0,0-.16.34v1.07a1.18,1.18,0,0,0,.53.92l1.92,1.1a.34.34,0,0,0,.37,0l1-.57a.39.39,0,0,0,.15-.34Z" style="fill:#407BFF"></path><path d="M294.88,219.52l1.92,1.1a1.18,1.18,0,0,1,.53.92v1.07c0,.34-.24.47-.53.3l-1.92-1.1a1.18,1.18,0,0,1-.53-.92v-1.07C294.35,219.48,294.59,219.35,294.88,219.52Z" style="fill:#407BFF"></path><path d="M298.32,221V222a.38.38,0,0,1-.16.34l-1,.55a.41.41,0,0,0,.12-.32v-1.07a1.11,1.11,0,0,0-.15-.52l1-.57A1.11,1.11,0,0,1,298.32,221Z" style="opacity:0.15"></path><path d="M298.17,220.45l-1,.57a1.13,1.13,0,0,0-.38-.4l-1.92-1.1a.39.39,0,0,0-.35-.06c.17-.09.88-.51,1-.55a.38.38,0,0,1,.38,0l1.91,1.11A1,1,0,0,1,298.17,220.45Z" style="opacity:0.25"></path><path d="M325.79,207.7a1.14,1.14,0,0,1,.53-.91l1.91-1.11a.41.41,0,0,1,.38,0l1,.58a.35.35,0,0,1,.15.34v1.07a1.15,1.15,0,0,1-.53.92l-1.91,1.1a.37.37,0,0,1-.37,0l-1-.57a.4.4,0,0,1-.15-.35Z" style="fill:#407BFF"></path><path d="M329.22,206.25l-1.91,1.11a1.18,1.18,0,0,0-.53.92v1.07c0,.33.24.47.53.3l1.91-1.1a1.15,1.15,0,0,0,.53-.92v-1.07C329.75,206.22,329.52,206.08,329.22,206.25Z" style="fill:#407BFF"></path><path d="M325.79,207.7v1.07a.4.4,0,0,0,.15.35c.09,0,.78.45,1,.55a.39.39,0,0,1-.12-.32v-1.07a1.11,1.11,0,0,1,.15-.52l-1-.58A1.18,1.18,0,0,0,325.79,207.7Z" style="opacity:0.15"></path><path d="M325.94,207.18l1,.58a1,1,0,0,1,.38-.4l1.92-1.1a.39.39,0,0,1,.35-.06l-1-.56a.39.39,0,0,0-.37,0l-1.91,1.1A1.22,1.22,0,0,0,325.94,207.18Z" style="opacity:0.25"></path><path d="M319.83,211.15a1.18,1.18,0,0,1,.53-.92l1.91-1.11a.38.38,0,0,1,.38,0l1,.57a.38.38,0,0,1,.16.34v1.07a1.18,1.18,0,0,1-.53.92l-1.92,1.11a.36.36,0,0,1-.37,0l-1-.57a.38.38,0,0,1-.15-.34Z" style="fill:#407BFF"></path><path d="M323.27,209.7l-1.92,1.1a1.18,1.18,0,0,0-.53.92v1.07c0,.34.24.47.53.31l1.92-1.11a1.18,1.18,0,0,0,.53-.92V210C323.8,209.67,323.56,209.53,323.27,209.7Z" style="fill:#407BFF"></path><path d="M319.83,211.15v1.07a.36.36,0,0,0,.16.34l.95.55a.41.41,0,0,1-.12-.32v-1.07a1.14,1.14,0,0,1,.15-.52l-1-.57A1.11,1.11,0,0,0,319.83,211.15Z" style="opacity:0.15"></path><path d="M320,210.63l1,.57a1.13,1.13,0,0,1,.38-.4l1.92-1.1a.38.38,0,0,1,.35,0l-1-.56a.38.38,0,0,0-.38,0l-1.91,1.11A1.13,1.13,0,0,0,320,210.63Z" style="opacity:0.25"></path><path d="M313.87,214.59a1.18,1.18,0,0,1,.53-.92l1.92-1.1a.34.34,0,0,1,.37,0l1,.58a.37.37,0,0,1,.15.34v1.07a1.16,1.16,0,0,1-.53.91l-1.92,1.11a.39.39,0,0,1-.37,0l-1-.58a.35.35,0,0,1-.16-.34Z" style="fill:#407BFF"></path><path d="M317.31,213.14l-1.92,1.11a1.16,1.16,0,0,0-.53.91v1.07c0,.34.24.48.53.31l1.92-1.11a1.16,1.16,0,0,0,.53-.91v-1.07C317.84,213.11,317.6,213,317.31,213.14Z" style="fill:#407BFF"></path><path d="M313.87,214.59v1.07a.35.35,0,0,0,.16.34l1,.56a.42.42,0,0,1-.13-.33v-1.07a1.08,1.08,0,0,1,.16-.52l-1-.57A1.14,1.14,0,0,0,313.87,214.59Z" style="opacity:0.15"></path><path d="M314,214.07l1,.57a1.07,1.07,0,0,1,.37-.39l1.92-1.11a.39.39,0,0,1,.35,0l-1-.56a.34.34,0,0,0-.37,0l-1.92,1.1A1.22,1.22,0,0,0,314,214.07Z" style="opacity:0.25"></path><path d="M280.55,180.45V180h.12a1.64,1.64,0,0,1,.65-.63,4.13,4.13,0,0,1,3.75,0,1.64,1.64,0,0,1,.65.63h.12v.5h0a1.29,1.29,0,0,1-.77,1.08,4.13,4.13,0,0,1-3.75,0A1.31,1.31,0,0,1,280.55,180.45Z" style="fill:#263238"></path><path d="M285.07,181a1.14,1.14,0,0,0,0-2.16,4.13,4.13,0,0,0-3.75,0,1.14,1.14,0,0,0,0,2.16A4.13,4.13,0,0,0,285.07,181Z" style="fill:#37474f"></path><path d="M281.14,179.75v-.87h.1a1.24,1.24,0,0,1,.5-.49,3.24,3.24,0,0,1,2.91,0,1.34,1.34,0,0,1,.51.49h.09v.87h0a1,1,0,0,1-.6.84,3.24,3.24,0,0,1-2.91,0A1,1,0,0,1,281.14,179.75Z" style="fill:#407BFF"></path><path d="M281.14,179.75v-.87h.1a1.24,1.24,0,0,1,.5-.49,3.24,3.24,0,0,1,2.91,0,1.34,1.34,0,0,1,.51.49h.09v.87h0a1,1,0,0,1-.6.84,3.24,3.24,0,0,1-2.91,0A1,1,0,0,1,281.14,179.75Z" style="opacity:0.15"></path><path d="M284.65,179.71a.88.88,0,0,0,0-1.67,3.18,3.18,0,0,0-2.91,0,.88.88,0,0,0,0,1.67A3.18,3.18,0,0,0,284.65,179.71Z" style="fill:#407BFF"></path><path d="M290.91,177.46l-2.17,1.25a.91.91,0,0,1-.79,0l-2.17-1.25c-.22-.13-.22-.34,0-.46l2.17-1.25a.85.85,0,0,1,.79,0l2.17,1.25C291.13,177.12,291.13,177.33,290.91,177.46Z" style="fill:#263238"></path><path d="M290.91,177.46l-2.17,1.25a.91.91,0,0,1-.79,0l-2.17-1.25L288,176.2a.91.91,0,0,1,.79,0Z" style="fill:#37474f"></path><path d="M287.4,177.43V177h0a.59.59,0,0,1,.24-.23,1.48,1.48,0,0,1,1.33,0,.59.59,0,0,1,.24.23h0v.4h0a.45.45,0,0,1-.28.38,1.42,1.42,0,0,1-1.33,0A.45.45,0,0,1,287.4,177.43Z" style="fill:#407BFF"></path><path d="M287.4,177.43V177h0a.59.59,0,0,1,.24-.23,1.48,1.48,0,0,1,1.33,0,.59.59,0,0,1,.24.23h0v.4h0a.45.45,0,0,1-.28.38,1.42,1.42,0,0,1-1.33,0A.45.45,0,0,1,287.4,177.43Z" style="opacity:0.15"></path><ellipse cx="288.35" cy="177.03" rx="0.95" ry="0.55" style="fill:#407BFF"></ellipse><path d="M295.18,175,293,176.24a.85.85,0,0,1-.79,0L290.05,175c-.22-.13-.22-.33,0-.45l2.17-1.26a.91.91,0,0,1,.79,0l2.17,1.26C295.4,174.66,295.4,174.86,295.18,175Z" style="fill:#263238"></path><path d="M295.18,175,293,176.24a.85.85,0,0,1-.79,0L290.05,175l2.17-1.25a.85.85,0,0,1,.79,0Z" style="fill:#37474f"></path><path d="M291.67,175v-.4h0a.58.58,0,0,1,.24-.22,1.42,1.42,0,0,1,1.33,0,.58.58,0,0,1,.24.22h0v.4h0a.47.47,0,0,1-.28.39,1.48,1.48,0,0,1-1.33,0A.47.47,0,0,1,291.67,175Z" style="fill:#407BFF"></path><path d="M291.67,175v-.4h0a.58.58,0,0,1,.24-.22,1.42,1.42,0,0,1,1.33,0,.58.58,0,0,1,.24.22h0v.4h0a.47.47,0,0,1-.28.39,1.48,1.48,0,0,1-1.33,0A.47.47,0,0,1,291.67,175Z" style="opacity:0.15"></path><path d="M293.28,175a.41.41,0,0,0,0-.78,1.48,1.48,0,0,0-1.33,0,.41.41,0,0,0,0,.78A1.48,1.48,0,0,0,293.28,175Z" style="fill:#407BFF"></path><path d="M296.75,187.7V187h.17a2.29,2.29,0,0,1,.92-.87,5.76,5.76,0,0,1,5.21,0,2.26,2.26,0,0,1,.91.87h.17v.7h0a1.84,1.84,0,0,1-1.08,1.51,5.76,5.76,0,0,1-5.21,0A1.83,1.83,0,0,1,296.75,187.7Z" style="fill:#263238"></path><path d="M303.05,188.51c1.44-.83,1.44-2.18,0-3a5.76,5.76,0,0,0-5.21,0c-1.45.83-1.45,2.18,0,3A5.76,5.76,0,0,0,303.05,188.51Z" style="fill:#37474f"></path><path d="M301.28,178.21v-2.14a3.73,3.73,0,0,0-1.86-3.23L277.18,160a.84.84,0,0,0-.84,1.46l22.23,12.84a2,2,0,0,1,1,1.77v2.14h0v8.48a.39.39,0,0,0,.25.33,1.36,1.36,0,0,0,1.21,0,.44.44,0,0,0,.25-.33v-8.48Z" style="fill:#263238"></path><path d="M268.79,158.13h0c1,1.81,20.38,14.26,25.4,17.17a1.94,1.94,0,0,0,2-.16,6.23,6.23,0,0,0,2.81-4.87,1.94,1.94,0,0,0-.88-1.85c-5.05-2.91-25-13.55-27.75-13.42a2,2,0,0,0-1.62,3.13Z" style="fill:#407BFF"></path><path d="M268.79,158.13h0c1,1.81,20.38,14.26,25.4,17.17a1.94,1.94,0,0,0,2-.16,6.23,6.23,0,0,0,2.81-4.87,1.94,1.94,0,0,0-.88-1.85c-5.05-2.91-25-13.55-27.75-13.42a2,2,0,0,0-1.62,3.13Z" style="fill:#fff;opacity:0.45"></path><path d="M296.23,175.14a5.15,5.15,0,0,0,.68-.5c-6.32-3.63-22.93-13.12-25.46-15-2.73-2-2.91-3.1-2.51-4a2,2,0,0,0-.52,1.32,2,2,0,0,0,.37,1.15h0c1,1.81,20.38,14.26,25.4,17.17A1.94,1.94,0,0,0,296.23,175.14Z" style="opacity:0.1"></path><polygon points="314.86 219.29 325.38 213.21 325.38 222.32 314.86 228.41 314.86 219.29"></polygon><polygon points="314.86 227.69 324.76 221.97 324.76 213.57 314.86 219.29 314.86 227.69" style="fill:#407BFF"></polygon><polygon points="314.86 227.69 324.76 221.97 324.76 213.57 314.86 219.29 314.86 227.69" style="fill:#fff;opacity:0.45"></polygon></g><g id="freepik--Arm--inject-46"><path d="M302.91,230.68c-1.13-4.39,0-4.26,1.66-8.2s1.12-6.34,2.07-9.92c.66-2.49-1.2-2.78-2.89-.69-1.46,1.79-1.58,4.12-1.9,4.94s-.85,1.4-.83.19,0-2.16,0-2.16l-1.06.53a1.08,1.08,0,0,1-1,0l-14.13-8.16A40.16,40.16,0,0,0,286,217.48c1.33,4.75,2.29,6.12,3,14.65a222.71,222.71,0,0,0,2.76,22.33c1.83,9.27,5.67,18.48,12.25,19.68l3-29.1Z" style="fill:#ffbda7"></path><path d="M307,245c-2.26,4.63-6.12,11.76-4.76,18.12-1.24-1.72-2-6.9-.51-11.54a80.66,80.66,0,0,1,4.3-10Z" style="fill:#f0997a"></path><path d="M289.31,199.21a9.11,9.11,0,0,1,1.75-.06c.94,0,1.74.67,2.63.26.47-.22.9-.54,1.39-.75a4,4,0,0,1,2-.13c.67.07,1.3.38,1.94.42s.9-.36,1.25-.86c.56-.78,1.28-2.45,2.32-2.66,2.66-.55.67,5.84.4,6.73a37.55,37.55,0,0,1-1.33,3.53,9.37,9.37,0,0,0-.52,1.63c-.11.48,0,1.28-.25,1.59a4,4,0,0,1-1,.56,1.1,1.1,0,0,1-1,0l-13.11-7.58c-.15-.08.53-1.15.65-1.27a6.52,6.52,0,0,1,1.23-.84A4.12,4.12,0,0,1,289.31,199.21Z" style="fill:#ffbda7"></path></g></g></g><g id="freepik--character-1--inject-46"><g id="freepik--character--inject-46"><path d="M165.72,360.24c-.57,2.33,0,8.73,0,8.73s1,2.2,4.63,3.66l1.59-8.9Z" style="fill:#263238"></path><polygon points="170.39 372.63 178.32 370 180.21 362.95 171.31 367.49 170.39 372.63"></polygon><path d="M178.58,352.05l0-1.67c1.08.52,3.48,9.2,6.7,15.15,3,5.43,8.77,8.44,10.66,10.8,2.53,3.16-2.36,7.26-10.23,5.6-3.91-.82-9.83-3.3-11.44-5.93s-2.17-7.47-3.49-9.41-4.43-4.15-5.1-6.35a11.91,11.91,0,0,1,0-6.09c.61-2,1.14-4.44,1.82-4.22l.05,1.52c.53,1.08,2.44,2.32,6.41,2.52C175.89,354.07,177.72,353.77,178.58,352.05Z" style="fill:#37474f"></path><path d="M123.67,354.11c-.62-.4-.62,7.36-1.1,12.08-.51,5.06-2.15,8.76-2.62,12.91-.52,4.74-.1,6.72,1.62,10.61,1.33,3,8,7.16,10.48,2.82s3-9.29,2.74-14-.62-8.44-.73-12.15c-.1-3.26,1-11.4-.06-11.41l-.12,1.27c-.87,1.77-9.28,3-10.28-.38Z" style="fill:#37474f"></path><path d="M123.67,354.11s-1.19-34.1.56-47.13c1.51-11.18,3.6-16.27,3.91-18.81,0,0,1.65-26.3,1.81-48.62.08-10.74,1.05-18.39,6.9-31.18l37,8.3c.79,5.67,4.36,44,5.07,77.58.63,29.36-.65,54.53,2.07,61.26a113.66,113.66,0,0,0,5.16,10.71c.55,1,1.94,2.85,2.66,3.85,2.32,2.7-1.09,4.07-4.66,3.61-3.77-.49-5.15-1.82-6.54-3.45-1.23-1.43-3.43-6.66-4.57-8.21-3.84-5.21-4.66-6.46-5.31-8a5.63,5.63,0,0,1-.21-4.1c-.32-3.56-7.09-33.82-7.25-44.18-.08-4.93.23-11.73.23-11.73l-6.06-34.17c-2.28,8.54-5.69,25-7,33.16-1.63,9.94-7.55,37.17-10.78,50.41-1.05,4.3-2.27,8.3-2.65,11.54,0,0-.12,1.27-.12,1.27-.07,1.47-1,17-1.56,20.36-1.2,6.92-7.35,6.07-8.36.48-.85-4.76-.38-19.41-.36-21.22Z" style="fill:#9e6767"></path><path d="M172.74,204.88l0,2.75c3,12.08,5.67,38.82,7.38,61.15.57,7.45,1,18.55.93,23.41-.34,28.69-1.78,44.8-1.78,44.8s-1.6,1.89-7.19,2.15-7-1.49-7-1.49-5-22.74-5.52-30.58a80.09,80.09,0,0,1,0-12.77l-5.09-32.8s-5.88,31.14-6.59,35.05-9.35,41-9.35,41-3,1.56-8.39.87-7.09-4.34-7.09-4.34-.34-20.63.67-28.55,3.58-14,3.93-19.16-1.38-27.95-1.42-39.17c0-7.66-.53-13.1.44-18.69,2-11.31,6.3-17.08,8.08-21.51l.18-2.32C141.12,209.48,161.92,212.05,172.74,204.88Z" style="fill:#455a64"></path><path d="M139.23,206.92c-5.23,11.51-9.22,21.85-9.34,40.13,0,3.94,0,7.81,0,11.56.05,13.12.1,24.45-1.68,30-.38,1.18-.8,2.38-1.24,3.64-.56,1.58-1.15,3.26-1.73,5.12a71.85,71.85,0,0,0-1.6,8.2c-.17,1.27-.29,2.71-.39,4.22a93.09,93.09,0,0,1,4.58-17.24c.45-1.27.87-2.47,1.26-3.66,1.82-5.68,1.77-17.08,1.72-30.27,0-3.75,0-7.62,0-11.56.12-18.13,4.1-28.39,9.31-39.83C139.81,207.13,139.52,207,139.23,206.92Z" style="fill:#37474f"></path><path d="M154.39,261.5l4.09-20.57s7.23-1.91,10.6-6.35c0,0-.51,5.39-8,8.55l-4.24,19.41,1,21.76Z" style="fill:#37474f"></path><path d="M130.34,206.31,123.77,229a1.07,1.07,0,0,0,.4,1.13L134.39,237a.47.47,0,0,0,.22.09.29.29,0,0,0,.16,0h.11l1.53-.57a.54.54,0,0,0,.32-.39l6.57-22.69a1.09,1.09,0,0,0-.4-1.13l-10.22-6.88a.54.54,0,0,0-.48-.08l-1.5.56h0a.39.39,0,0,0-.11.06l-.09.07,0,0a.35.35,0,0,1,0,.08Zm4.59,3.58,2.3,1.54a1.26,1.26,0,0,1,.51.9l-2.29-1.55A1.24,1.24,0,0,1,134.93,209.89Z" style="fill:#407BFF"></path><path d="M130.34,206.31,123.77,229a1.07,1.07,0,0,0,.4,1.13L134.39,237a.47.47,0,0,0,.22.09.29.29,0,0,0,.16,0h.11l1.53-.57a.54.54,0,0,0,.32-.39l6.57-22.69a1.09,1.09,0,0,0-.4-1.13l-10.22-6.88a.54.54,0,0,0-.48-.08l-1.5.56h0a.39.39,0,0,0-.11.06l-.09.07,0,0a.35.35,0,0,1,0,.08Zm4.59,3.58,2.3,1.54a1.26,1.26,0,0,1,.51.9l-2.29-1.55A1.24,1.24,0,0,1,134.93,209.89Z" style="opacity:0.15"></path><path d="M134.85,237.11h0l1.53-.57a.54.54,0,0,0,.32-.39l6.57-22.69a1,1,0,0,0,0-.63l-1.53.57a1,1,0,0,1,0,.63l-6.57,22.69A.55.55,0,0,1,134.85,237.11Z" style="fill:#407BFF"></path><path d="M134.85,237.11h0l1.53-.57a.54.54,0,0,0,.32-.39l6.57-22.69a1,1,0,0,0,0-.63l-1.53.57a1,1,0,0,1,0,.63l-6.57,22.69A.55.55,0,0,1,134.85,237.11Z" style="opacity:0.30000000000000004"></path><path d="M130.34,206.31,123.77,229a1.07,1.07,0,0,0,.4,1.13L134.39,237a.47.47,0,0,0,.22.09.29.29,0,0,0,.16,0h.08a.55.55,0,0,0,.35-.4L141.77,214a1.1,1.1,0,0,0-.4-1.13L138.49,211l-2.59-1.75-4.75-3.2a.54.54,0,0,0-.45-.09h0a.39.39,0,0,0-.11.06l-.09.07,0,0a.35.35,0,0,1,0,.08Zm7.4,6-2.29-1.55a1.24,1.24,0,0,1-.52-.89l2.3,1.54A1.26,1.26,0,0,1,137.74,212.33Z" style="fill:#407BFF"></path><path d="M133.69,210a1.22,1.22,0,0,0,.49,1.27l2.59,1.74a.57.57,0,0,0,.94-.3.76.76,0,0,0,0-.37l-2.29-1.55a1.24,1.24,0,0,1-.52-.89l-.3-.21A.57.57,0,0,0,133.69,210Z" style="opacity:0.2"></path><path d="M139,215.9l-7.27-4.9a.2.2,0,0,0-.32.12l-2.72,9.39a.44.44,0,0,0,.16.44l7.27,4.89a.21.21,0,0,0,.32-.12l2.71-9.39A.39.39,0,0,0,139,215.9Z" style="fill:#fafafa"></path><path d="M129.62,220.51l5.86,4a4.29,4.29,0,0,0-1.81-5C130.72,217.44,129.62,220.51,129.62,220.51Z" style="fill:#37474f"></path><path d="M136.05,216.21a1.86,1.86,0,1,1-2.53-1A1.92,1.92,0,0,1,136.05,216.21Z" style="fill:#37474f"></path><path d="M134.29,226.17l-4.8-3.23a.26.26,0,0,0-.42.16l0,.13a.56.56,0,0,0,.2.58L134,227a.27.27,0,0,0,.43-.16l0-.13A.56.56,0,0,0,134.29,226.17Z" style="fill:#455a64"></path><path d="M134.7,229.56,133,228.4a.1.1,0,0,0-.17.06.23.23,0,0,0,.09.23l1.71,1.15a.1.1,0,0,0,.17-.05A.23.23,0,0,0,134.7,229.56Z" style="fill:#455a64"></path><path d="M131.75,227.56l-4.18-2.81a.1.1,0,0,0-.17.06.23.23,0,0,0,.09.23l4.17,2.81a.11.11,0,0,0,.18,0A.25.25,0,0,0,131.75,227.56Z" style="fill:#455a64"></path><path d="M134.54,230.13,132.83,229a.11.11,0,0,0-.18.06.23.23,0,0,0,.09.23l1.71,1.15a.1.1,0,0,0,.17,0A.22.22,0,0,0,134.54,230.13Z" style="fill:#455a64"></path><path d="M131.58,228.14l-4.17-2.81a.11.11,0,0,0-.18.06.23.23,0,0,0,.09.23l4.17,2.81a.11.11,0,0,0,.18-.06A.23.23,0,0,0,131.58,228.14Z" style="fill:#455a64"></path><path d="M134.37,230.71l-1.71-1.15a.1.1,0,0,0-.17.05.21.21,0,0,0,.09.24l1.7,1.15a.11.11,0,0,0,.18-.06A.23.23,0,0,0,134.37,230.71Z" style="fill:#455a64"></path><path d="M131.41,228.72l-4.17-2.81a.1.1,0,0,0-.17.05.21.21,0,0,0,.09.24l4.17,2.81a.1.1,0,0,0,.17-.06A.23.23,0,0,0,131.41,228.72Z" style="fill:#455a64"></path><path d="M134.2,231.29l-1.71-1.15a.1.1,0,0,0-.17.05.23.23,0,0,0,.09.23l1.71,1.16a.1.1,0,0,0,.17-.06A.23.23,0,0,0,134.2,231.29Z" style="fill:#455a64"></path><path d="M131.24,229.3l-4.17-2.81a.1.1,0,0,0-.17,0,.25.25,0,0,0,.09.24l4.17,2.81a.1.1,0,0,0,.17-.06A.2.2,0,0,0,131.24,229.3Z" style="fill:#455a64"></path><polygon points="133.19 232.26 132.67 234.07 132.16 233.73 132.68 231.92 133.19 232.26" style="fill:#455a64"></polygon><polygon points="131.65 231.22 131.13 233.03 130.61 232.69 131.13 230.88 131.65 231.22" style="fill:#455a64"></polygon><polygon points="129.59 229.84 129.07 231.65 128.55 231.3 129.08 229.49 129.59 229.84" style="fill:#455a64"></polygon><polygon points="127.79 228.63 127.27 230.44 126.75 230.09 127.28 228.28 127.79 228.63" style="fill:#455a64"></polygon><polygon points="132.42 231.75 131.9 233.55 131.64 233.38 132.16 231.57 132.42 231.75" style="fill:#455a64"></polygon><polygon points="128.82 229.32 128.3 231.13 128.04 230.96 128.56 229.15 128.82 229.32" style="fill:#455a64"></polygon><polygon points="130.36 230.36 129.84 232.17 129.58 231.99 130.11 230.19 130.36 230.36" style="fill:#455a64"></polygon><polygon points="131.91 231.4 131.38 233.21 131.25 233.12 131.78 231.31 131.91 231.4" style="fill:#455a64"></polygon><polygon points="129.93 230.07 129.41 231.88 129.28 231.79 129.8 229.98 129.93 230.07" style="fill:#455a64"></polygon><polygon points="130.75 230.62 130.23 232.43 130.1 232.34 130.62 230.53 130.75 230.62" style="fill:#455a64"></polygon><polygon points="128.18 228.89 127.66 230.69 127.53 230.61 128.05 228.8 128.18 228.89" style="fill:#455a64"></polygon><polygon points="131.01 230.79 130.48 232.6 130.35 232.51 130.88 230.7 131.01 230.79" style="fill:#455a64"></polygon><polygon points="128.44 229.06 127.91 230.87 127.78 230.78 128.31 228.97 128.44 229.06" style="fill:#455a64"></polygon><path d="M133.58,227.34l-4.17-2.81c-.08-.05-.15,0-.18.05a.23.23,0,0,0,.09.23l4.17,2.82a.12.12,0,0,0,.18-.06A.23.23,0,0,0,133.58,227.34Z" style="opacity:0.30000000000000004"></path><path d="M218.53,177.66c.53,3.31-1.31,8-3.27,11.34s-14.74,15.54-23,21.18c-4.93,3.36-7.37,2.38-10.81-1.78s-18.14-25.57-18.14-25.57L164.65,163c4.54-.16,8.46.38,11.08,4.44,4.05,6.29,13.86,26.87,13.86,26.87s15.2-8.71,14.53-11.76Z" style="fill:#9e6767"></path><path d="M164.68,162.61c5.58-.19,8.13.37,10.64,3.65s14.55,27.51,14.55,27.51l8.06-4.75s0,4.41,2.54,6.8a17.27,17.27,0,0,0,5.14,3.4,89,89,0,0,1-11.53,10.33c-5.41,3.75-7.65,4.45-10.65,1.79s-20.11-27.47-20.11-27.47Z" style="fill:#407BFF"></path><path d="M189.87,193.77c-3.75,2.44-6.27,6-6.44,9.86-1-4.27,1.81-9.76,5.62-11.5Z" style="opacity:0.1"></path><path d="M200.61,187,196.35,190a13.7,13.7,0,0,0,1.66,5.87,14.81,14.81,0,0,0,5.79,5.27l4-3.93s-3.56-2.07-5.14-4.45A15.89,15.89,0,0,1,200.61,187Z" style="fill:#407BFF"></path><path d="M200.61,187,196.35,190a13.7,13.7,0,0,0,1.66,5.87,14.81,14.81,0,0,0,5.79,5.27l4-3.93s-3.56-2.07-5.14-4.45A15.89,15.89,0,0,1,200.61,187Z" style="opacity:0.30000000000000004"></path><path d="M190.41,159.55c-3.34-4.32-2.76-9.06.52-11.6s8-1.9,11.35,2.41,2.76,9.06-.51,11.6S193.75,163.86,190.41,159.55Z" style="fill:#37474f"></path><path d="M190.42,160a.43.43,0,0,1-.35-.17,4.12,4.12,0,0,1-.2-4.19,12.23,12.23,0,0,1,8.74-6.77,4.12,4.12,0,0,1,4,1.25.44.44,0,0,1-.69.53,3.34,3.34,0,0,0-3.21-.91,11.28,11.28,0,0,0-8,6.23,3.31,3.31,0,0,0,.08,3.33.44.44,0,0,1-.34.7Z" style="fill:#263238"></path><polygon points="212.41 157.67 199.3 165.24 198.26 172.94 211.37 165.37 212.41 157.67" style="fill:#407BFF"></polygon><polygon points="212.41 157.67 199.3 165.24 198.26 172.94 211.37 165.37 212.41 157.67" style="opacity:0.30000000000000004"></polygon><polygon points="207.54 151.76 194.43 159.33 199.3 165.24 212.41 157.67 207.54 151.76" style="fill:#407BFF"></polygon><path d="M201.36,156.92a.26.26,0,0,1,.17,0,.18.18,0,0,1,.14.08l.46.62a.17.17,0,0,1,0,.14.19.19,0,0,1-.1.12l-1.21.71,2.23,3a.17.17,0,0,1,0,.14.19.19,0,0,1-.1.12l-.9.52a.25.25,0,0,1-.17,0,.17.17,0,0,1-.13-.08l-2.24-3-1.22.71a.29.29,0,0,1-.16,0,.18.18,0,0,1-.14-.08l-.46-.62a.12.12,0,0,1,0-.14.18.18,0,0,1,.09-.12Z" style="fill:#fafafa"></path><path d="M206.71,159.7a.47.47,0,0,1-.54,0L202,156.82l-.06,0,0,0a.16.16,0,0,1,0-.12.19.19,0,0,1,.08-.1l.87-.5a.38.38,0,0,1,.23-.06.37.37,0,0,1,.15.05l2.88,2-1-3.14a.28.28,0,0,1,0-.13.32.32,0,0,1,.16-.17l.87-.5a.22.22,0,0,1,.14,0,.14.14,0,0,1,.11.06v0l0,.06,1.32,4.48a.37.37,0,0,1-.19.45Z" style="fill:#fafafa"></path><polygon points="194.43 159.33 193.39 167.03 198.26 172.94 199.3 165.24 194.43 159.33" style="fill:#407BFF"></polygon><polygon points="194.43 159.33 193.39 167.03 198.26 172.94 199.3 165.24 194.43 159.33" style="opacity:0.1"></polygon><path d="M204.18,174.33c1.22-2.13,2.75-5.45,4.95-6.31s2.9-.51,2.9-.51l.54,4.17Z" style="fill:#874c4c"></path><path d="M221.19,187.65h0a2.59,2.59,0,0,1-3.62-.63l-14.15-20.13c-1-1.38,3.28-4.38,4.25-3L221.82,184A2.6,2.6,0,0,1,221.19,187.65Z"></path><path d="M211.31,172.73c0-.47.76-1.33.59-1.76l-1.29-3.41a3.19,3.19,0,0,1,1.69,0,7.15,7.15,0,0,1,2.22,1.39c2.06,1.71,5.44,5,5.38,7.22" style="fill:#874c4c"></path><path d="M204.85,187c-.08-3-1.79-7.48-1.64-10s1.95-4.14,4.49-5.74a13.28,13.28,0,0,0,3.93-3.41c.3-.08,1.34,1.4,1,2.5a9.88,9.88,0,0,1-2.39,3.53c-2.22,2.49,2.6,3.14,2.11,8.63C213.24,185.17,204.85,187,204.85,187Z" style="fill:#9e6767"></path><path d="M219.9,176.2c-.05,2.22-2.18,5-3.6,5.39a3.26,3.26,0,0,1-1.78.06c-.57-.16-1-.6-1.58-.76-.3-.08-.61-.11-.9-.21a1.17,1.17,0,0,1-.72-.54c-.16-.31-.11-.7-.31-1a1,1,0,0,0-.5-.32c-.31-.1-.65-.12-1-.23a.91.91,0,0,1-.66-.67,1.15,1.15,0,0,1,.28-.78,27.14,27.14,0,0,1,2-2.43,1.54,1.54,0,0,0,.17-2" style="fill:#874c4c"></path><path d="M211.35,178.08c1,2.73-.8,5.9-2.34,6.94a5.2,5.2,0,0,0,3.37-2.46l4.43,3.39Z" style="fill:#874c4c"></path><path d="M146.74,162.81,136,164.08c2,11.4-3.52,22.9-3.52,22.9-.16,7.31-.82,15.79,2.38,17.43a13.89,13.89,0,0,0,.4,2.84c8.09,4.05,26,6.3,36.71.37l.75-3.16c2.68-1.77,2-9.39,2.39-14.89,7-9.75-4.87-22-10.45-27l-4.83,0Z" style="fill:#407BFF"></path><path d="M146.74,162.81,136,164.08c2,11.4-3.52,22.9-3.52,22.9-.16,7.31-.82,15.79,2.38,17.43a13.89,13.89,0,0,0,.4,2.84c8.09,4.05,26,6.3,36.71.37l.75-3.16c2.68-1.77,2-9.39,2.39-14.89,7-9.75-4.87-22-10.45-27l-4.83,0Z" style="opacity:0.30000000000000004"></path><path d="M172.71,207.63l0-3.17c-10.82,7.18-31.6,4.73-37.86-.05l-.21,2.62s2.88,5,18.54,5.33S172.71,207.63,172.71,207.63Z" style="fill:#37474f"></path><path d="M177.15,131.71a3.62,3.62,0,0,0-.3-2c-.26-.58-.89-1-1.11-1.58-.44-1.08.79-2.67.88-3.82a4.1,4.1,0,0,0-1.76-3.47,7.08,7.08,0,0,0-3.82-1.23,11.28,11.28,0,0,0-4,.49c-3.78-8.32-23.8-8.43-27.45,5.66a13.27,13.27,0,0,0-4.13,4c-3.13,5.15-1.69,12.53,1.51,17.33s9.62,10.11,9.68,12l23-24.32s2,3.07,4.29,3.19a2.12,2.12,0,0,0,2.49-1.69,1,1,0,0,1-1.77-.91C174.87,134.34,176.87,133.81,177.15,131.71Z" style="fill:#263238"></path><path d="M172,132.28a44.39,44.39,0,0,1,.84,10.86c0,10.53-3.22,13.2-4.85,14s-4.81.4-7.91-.07l0,5.58s4.58,7.24,3.37,18.91c-11.5-9.37-16.73-18.74-16.73-18.74l-.27-13.8a4.38,4.38,0,0,1-4.91-.25c-2.77-2-3.54-6.14-1.6-8.27s4.46-1.89,6.72.48c3.49,4.34,3.72-.33,3.63-2.42-.17-3.67,1.35-10.48,8.08-9.93a5.33,5.33,0,0,1,2.77,1.16,3,3,0,0,0,3.92-.19C167.15,127.48,170.88,127.91,172,132.28Z" style="fill:#9e6767"></path><path d="M167.76,139a1.28,1.28,0,0,0,1.22,1.35,1.3,1.3,0,0,0,1.3-1.27,1.26,1.26,0,1,0-2.52-.08Z" style="fill:#263238"></path><path d="M156.8,139.46a1.35,1.35,0,1,0,1.39-1.36A1.38,1.38,0,0,0,156.8,139.46Z" style="fill:#263238"></path><path d="M159.62,148.44l5.06,1.56a2.58,2.58,0,0,1-3.23,1.95A2.91,2.91,0,0,1,159.62,148.44Z" style="fill:#874c4c"></path><path d="M162.48,152a2.5,2.5,0,0,0-2.51-2.48,2.71,2.71,0,0,0-.41,0,2.81,2.81,0,0,0,1.89,2.35A2.61,2.61,0,0,0,162.48,152Z" style="fill:#f28f8f"></path><path d="M171.27,136.3l-3.46-1.73a1.86,1.86,0,0,1,2.58-.89A2,2,0,0,1,171.27,136.3Z" style="fill:#263238"></path><path d="M158.23,135l-3.44,1.78a1.86,1.86,0,0,1,.8-2.61A2,2,0,0,1,158.23,135Z" style="fill:#263238"></path><path d="M160.07,157.06c-3.26-.37-10-2.22-11.09-4.95a7.09,7.09,0,0,0,2.42,3.46c2,1.74,8.68,3.53,8.68,3.53Z" style="fill:#874c4c"></path><path d="M163.36,138.79l.57,7.7,4.82-1.68L164,138.58A.88.88,0,0,0,163.36,138.79Z" style="fill:#874c4c"></path><path d="M125.75,202.45a168.75,168.75,0,0,0,8.94-16.09c6.15-8.24,1.93-17.72-.31-21.36-8.66,1.29-10.09,4.68-12.21,9.36-3,6.57-9.3,20.29-11.58,26.07l-15.26-9.59c-3.27-2.83-4-6.82-6-9.32s-4.26-3.21-6.51-5.34-3.09-3.7-4-2,1.55,4.78,2,5.53,3,2.61-.55,2.27-10.21-4.86-11.83-5.7-1.77,1.21-1.07,2.6.24,5.11,1.43,7.41,2,3.52,5.16,5.34c3,1.69,9.48,3,12.56,5.43s10.33,8.93,16.36,13.89c6.58,5.4,11.13,8.12,15.12,3C120.94,210.05,123.07,206.55,125.75,202.45Z" style="fill:#9e6767"></path><path d="M136,164.08c-7.6.51-11.3,2.93-14,8.88-2.39,5.19-11.63,26.84-11.63,26.84l-6.71-3.73c.13,3.27-2.77,8.74-6.54,10,0,0,7.33,7.08,11.16,9.29s5.89,3.57,10-1.22,19-29.37,19-29.37S142.37,176.27,136,164.08Z" style="fill:#407BFF"></path><path d="M110.36,199.8c3.69,2.35,6,5.32,6.59,7.25,0,0,.06-4.09-5.81-9.11Z" style="opacity:0.1"></path><path d="M104.65,196.63s.11,6.08-6.48,10.42l-4.58-4s4.42-2.13,6-9.51Z" style="fill:#407BFF"></path><path d="M104.65,196.63s.11,6.08-6.48,10.42l-4.58-4s4.42-2.13,6-9.51Z" style="opacity:0.30000000000000004"></path></g></g></svg>